<svg viewBox="0 0 1460 575" xmlns="http://www.w3.org/2000/svg" xmlns:xlink="http://www.w3.org/1999/xlink"><defs><linearGradient id="t"><stop offset="0"/><stop offset="1" stop-color="#fff" stop-opacity="0"/></linearGradient><linearGradient id="q"><stop offset="0" stop-color="#fff"/><stop offset="1" stop-color="#fff" stop-opacity="0"/></linearGradient><linearGradient id="p"><stop offset="0" stop-color="#eaeaea"/><stop offset="1" stop-color="#888"/></linearGradient><linearGradient id="o"><stop offset="0" stop-color="#757575"/><stop offset=".5" stop-color="#b1b1b1"/><stop offset="1" stop-color="#757575"/></linearGradient><linearGradient id="n"><stop offset="0" stop-color="#d0d0d0"/><stop offset=".5" stop-color="#e1e1e1"/><stop offset="1" stop-color="#d0d0d0"/></linearGradient><linearGradient id="m"><stop offset="0" stop-color="#8c8c8c"/><stop offset="1" stop-color="#bebebe"/></linearGradient><linearGradient id="l"><stop offset="0" stop-color="#cdcdcd"/><stop offset="1" stop-color="#a4a4a4"/></linearGradient><linearGradient id="k"><stop offset="0" stop-color="#b3b3b3"/><stop offset="1" stop-color="#656565"/></linearGradient><linearGradient id="j"><stop offset="0" stop-color="#dfdfdf"/><stop offset="1" stop-color="#ededed"/></linearGradient><linearGradient id="i"><stop offset="0" stop-color="#9b9b9b"/><stop offset="1" stop-color="#636363"/></linearGradient><linearGradient id="h"><stop offset="0" stop-color="#b6b6b6"/><stop offset="1" stop-color="#7a7a7a"/></linearGradient><linearGradient id="g"><stop offset="0" stop-color="#d5d5d5"/><stop offset="1" stop-color="#e9e9e9"/></linearGradient><linearGradient id="f"><stop offset="0" stop-color="#989898"/><stop offset=".5" stop-color="#b2b2b2"/><stop offset="1" stop-color="#989898"/></linearGradient><linearGradient id="e"><stop offset="0" stop-color="#585858"/><stop offset="1" stop-color="#dcdcdc"/></linearGradient><linearGradient id="d"><stop offset="0" stop-color="#b1b1b1"/><stop offset="1" stop-color="#434343"/></linearGradient><linearGradient id="c"><stop offset="0" stop-color="#cdcdcd"/><stop offset="1" stop-color="#a4a4a4"/></linearGradient><linearGradient id="b"><stop offset="0" stop-color="#717171"/><stop offset="1" stop-color="#cbcbcb"/></linearGradient><linearGradient id="a"><stop offset="0" stop-color="#baa851"/><stop offset="1" stop-color="#edda84"/></linearGradient><linearGradient xlink:href="#a" id="K" x1="1164.588" y1="629.894" x2="1188.656" y2="627.427" gradientUnits="userSpaceOnUse"/><linearGradient xlink:href="#b" id="C" x1="1236.034" y1="572.37" x2="1237.813" y2="578.323" gradientUnits="userSpaceOnUse"/><linearGradient xlink:href="#b" id="D" x1="1245.893" y1="565.851" x2="1236.867" y2="561.882" gradientUnits="userSpaceOnUse"/><linearGradient xlink:href="#b" id="A" gradientUnits="userSpaceOnUse" x1="1236.034" y1="572.37" x2="1237.813" y2="578.323"/><linearGradient xlink:href="#b" id="B" gradientUnits="userSpaceOnUse" x1="1245.893" y1="565.851" x2="1236.867" y2="561.882"/><linearGradient xlink:href="#b" id="E" gradientUnits="userSpaceOnUse" x1="1236.034" y1="572.37" x2="1237.813" y2="578.323"/><linearGradient xlink:href="#b" id="F" gradientUnits="userSpaceOnUse" x1="1245.893" y1="565.851" x2="1236.867" y2="561.882"/><linearGradient xlink:href="#b" id="y" gradientUnits="userSpaceOnUse" x1="1236.034" y1="572.37" x2="1237.813" y2="578.323"/><linearGradient xlink:href="#b" id="z" gradientUnits="userSpaceOnUse" x1="1245.893" y1="565.851" x2="1236.867" y2="561.882"/><linearGradient xlink:href="#b" id="G" gradientUnits="userSpaceOnUse" x1="1236.034" y1="572.37" x2="1237.813" y2="578.323"/><linearGradient xlink:href="#b" id="H" gradientUnits="userSpaceOnUse" x1="1245.893" y1="565.851" x2="1236.867" y2="561.882"/><linearGradient xlink:href="#b" id="I" gradientUnits="userSpaceOnUse" x1="1236.034" y1="572.37" x2="1237.813" y2="578.323"/><linearGradient xlink:href="#b" id="J" gradientUnits="userSpaceOnUse" x1="1245.893" y1="565.851" x2="1236.867" y2="561.882"/><radialGradient xlink:href="#c" id="L" gradientUnits="userSpaceOnUse" gradientTransform="matrix(.32334 -.25958 .48331 .60202 -140.918 -118.61)" cx="405.537" cy="672.268" fx="405.537" fy="672.268" r="5.959"/><radialGradient xlink:href="#c" id="M" gradientUnits="userSpaceOnUse" gradientTransform="matrix(.32334 -.25958 .48331 .60202 -51.052 -103.477)" cx="405.537" cy="672.268" fx="405.537" fy="672.268" r="5.959"/><radialGradient xlink:href="#c" id="N" gradientUnits="userSpaceOnUse" gradientTransform="matrix(.32334 -.25958 .48331 .60202 -206.078 -91.125)" cx="405.537" cy="672.268" fx="405.537" fy="672.268" r="5.959"/><radialGradient xlink:href="#c" id="O" gradientUnits="userSpaceOnUse" gradientTransform="matrix(.32334 -.25958 .48331 .60202 82.047 -125.095)" cx="405.537" cy="672.268" fx="405.537" fy="672.268" r="5.959"/><radialGradient xlink:href="#c" id="P" gradientUnits="userSpaceOnUse" gradientTransform="matrix(.32334 -.25958 .48331 .60202 50.857 -6.51)" cx="405.537" cy="672.268" fx="405.537" fy="672.268" r="5.959"/><radialGradient xlink:href="#c" id="Q" gradientUnits="userSpaceOnUse" gradientTransform="matrix(.32334 -.25958 .48331 .60202 139.178 101.267)" cx="405.537" cy="672.268" fx="405.537" fy="672.268" r="5.959"/><radialGradient xlink:href="#c" id="R" gradientUnits="userSpaceOnUse" gradientTransform="matrix(.32334 -.25958 .48331 .60202 43.137 103.12)" cx="405.537" cy="672.268" fx="405.537" fy="672.268" r="5.959"/><radialGradient xlink:href="#c" id="S" gradientUnits="userSpaceOnUse" gradientTransform="matrix(.32334 -.25958 .48331 .60202 -50.137 102.813)" cx="405.537" cy="672.268" fx="405.537" fy="672.268" r="5.959"/><radialGradient xlink:href="#c" id="T" gradientUnits="userSpaceOnUse" gradientTransform="matrix(.32334 -.25958 .48331 .60202 -150.182 157.472)" cx="405.537" cy="672.268" fx="405.537" fy="672.268" r="5.959"/><radialGradient xlink:href="#c" id="U" gradientUnits="userSpaceOnUse" gradientTransform="matrix(.32334 -.25958 .48331 .60202 -234.797 185.265)" cx="405.537" cy="672.268" fx="405.537" fy="672.268" r="5.959"/><radialGradient xlink:href="#c" id="V" gradientUnits="userSpaceOnUse" gradientTransform="matrix(.32334 -.25958 .48331 .60202 -193.89 50.521)" cx="405.537" cy="672.268" fx="405.537" fy="672.268" r="5.959"/><radialGradient xlink:href="#d" id="ae" cx="258.575" cy="789.935" fx="258.575" fy="789.935" r="3.973" gradientUnits="userSpaceOnUse" gradientTransform="matrix(1.23632 .01581 -.01007 .7875 -53.03 163.739)"/><radialGradient xlink:href="#d" id="af" gradientUnits="userSpaceOnUse" gradientTransform="matrix(1.23632 .01581 -.01007 .7875 -50.783 177.597)" cx="258.575" cy="789.935" fx="258.575" fy="789.935" r="3.973"/><radialGradient xlink:href="#d" id="ag" gradientUnits="userSpaceOnUse" gradientTransform="matrix(1.23632 .01581 -.01007 .7875 -55.652 148.944)" cx="258.575" cy="789.935" fx="258.575" fy="789.935" r="3.973"/><radialGradient xlink:href="#d" id="ah" gradientUnits="userSpaceOnUse" gradientTransform="matrix(1.23632 .01581 -.01007 .7875 -58.274 134.711)" cx="258.575" cy="789.935" fx="258.575" fy="789.935" r="3.973"/><radialGradient xlink:href="#d" id="ai" gradientUnits="userSpaceOnUse" gradientTransform="matrix(1.23632 .01581 -.01007 .7875 -60.334 119.917)" cx="258.575" cy="789.935" fx="258.575" fy="789.935" r="3.973"/><radialGradient xlink:href="#d" id="aj" gradientUnits="userSpaceOnUse" gradientTransform="matrix(1.23632 .01581 -.01007 .7875 -63.143 105.122)" cx="258.575" cy="789.935" fx="258.575" fy="789.935" r="3.973"/><linearGradient xlink:href="#e" id="ad" x1="157.354" y1="785.632" x2="81.736" y2="764.167" gradientUnits="userSpaceOnUse"/><linearGradient xlink:href="#f" id="X" x1="251.511" y1="846.265" x2="259.002" y2="846.265" gradientUnits="userSpaceOnUse" gradientTransform="translate(1.5)"/><linearGradient xlink:href="#f" id="Y" gradientUnits="userSpaceOnUse" gradientTransform="translate(1.5)" x1="251.511" y1="846.265" x2="259.002" y2="846.265"/><linearGradient xlink:href="#f" id="Z" gradientUnits="userSpaceOnUse" gradientTransform="translate(1.5)" x1="251.511" y1="846.265" x2="259.002" y2="846.265"/><linearGradient xlink:href="#f" id="aa" gradientUnits="userSpaceOnUse" gradientTransform="translate(1.5)" x1="251.511" y1="846.265" x2="259.002" y2="846.265"/><linearGradient xlink:href="#f" id="ab" gradientUnits="userSpaceOnUse" gradientTransform="translate(1.5)" x1="251.511" y1="846.265" x2="259.002" y2="846.265"/><linearGradient xlink:href="#f" id="ac" gradientUnits="userSpaceOnUse" gradientTransform="translate(1.5)" x1="251.511" y1="846.265" x2="259.002" y2="846.265"/><clipPath id="W"><path style="isolation:auto;mix-blend-mode:normal;marker:none" d="M197.757 724.593l50.285-8.007a5.556 5.556 0 0 1 6.402 4.708l13.404 91.933a5.734 5.734 0 0 1-4.77 6.487l-50.285 8.007a5.556 5.556 0 0 1-6.402-4.708l-13.404-91.934a5.734 5.734 0 0 1 4.77-6.486z" color="#000" overflow="visible" fill="#f0f" fill-rule="evenodd" stroke-width="2" stroke-linecap="round" enable-background="accumulate"/></clipPath><linearGradient xlink:href="#g" id="ak" x1="282.932" y1="771.603" x2="247.677" y2="763.572" gradientUnits="userSpaceOnUse"/><linearGradient xlink:href="#h" id="al" x1="394.707" y1="785.453" x2="387.976" y2="781.153" gradientUnits="userSpaceOnUse"/><linearGradient xlink:href="#h" id="am" gradientUnits="userSpaceOnUse" x1="394.707" y1="785.453" x2="387.976" y2="781.153" gradientTransform="translate(-2.618 -14.584)"/><linearGradient xlink:href="#h" id="an" gradientUnits="userSpaceOnUse" gradientTransform="translate(-4.861 -28.794)" x1="394.707" y1="785.453" x2="387.976" y2="781.153"/><linearGradient xlink:href="#h" id="ao" gradientUnits="userSpaceOnUse" gradientTransform="translate(-7.105 -43.005)" x1="394.707" y1="785.453" x2="387.976" y2="781.153"/><linearGradient xlink:href="#h" id="ap" gradientUnits="userSpaceOnUse" gradientTransform="translate(-9.723 -57.963)" x1="394.707" y1="785.453" x2="387.976" y2="781.153"/><linearGradient xlink:href="#h" id="aq" gradientUnits="userSpaceOnUse" gradientTransform="translate(-11.966 -71.799)" x1="394.707" y1="785.453" x2="387.976" y2="781.153"/><linearGradient xlink:href="#i" id="ar" gradientUnits="userSpaceOnUse" gradientTransform="matrix(1.13953 0 0 1.13953 -69.15 -199.46)" x1="394.707" y1="784.305" x2="387.648" y2="782.138"/><linearGradient xlink:href="#i" id="as" gradientUnits="userSpaceOnUse" gradientTransform="matrix(1.13953 0 0 1.13953 -51.014 -90.827)" x1="394.707" y1="784.305" x2="387.648" y2="782.138"/><linearGradient xlink:href="#g" id="at" gradientUnits="userSpaceOnUse" x1="282.932" y1="771.603" x2="247.677" y2="763.572"/><linearGradient xlink:href="#h" id="au" gradientUnits="userSpaceOnUse" x1="394.707" y1="785.453" x2="387.976" y2="781.153"/><linearGradient xlink:href="#h" id="av" gradientUnits="userSpaceOnUse" gradientTransform="translate(-2.618 -14.584)" x1="394.707" y1="785.453" x2="387.976" y2="781.153"/><linearGradient xlink:href="#h" id="aw" gradientUnits="userSpaceOnUse" gradientTransform="translate(-4.861 -28.794)" x1="394.707" y1="785.453" x2="387.976" y2="781.153"/><linearGradient xlink:href="#h" id="ax" gradientUnits="userSpaceOnUse" gradientTransform="translate(-7.105 -43.005)" x1="394.707" y1="785.453" x2="387.976" y2="781.153"/><linearGradient xlink:href="#h" id="ay" gradientUnits="userSpaceOnUse" gradientTransform="translate(-9.723 -57.963)" x1="394.707" y1="785.453" x2="387.976" y2="781.153"/><linearGradient xlink:href="#h" id="az" gradientUnits="userSpaceOnUse" gradientTransform="translate(-11.966 -71.799)" x1="394.707" y1="785.453" x2="387.976" y2="781.153"/><linearGradient xlink:href="#i" id="aA" gradientUnits="userSpaceOnUse" gradientTransform="matrix(1.13953 0 0 1.13953 -69.15 -199.46)" x1="394.707" y1="784.305" x2="387.648" y2="782.138"/><linearGradient xlink:href="#i" id="aB" gradientUnits="userSpaceOnUse" gradientTransform="matrix(1.13953 0 0 1.13953 -51.014 -90.827)" x1="394.707" y1="784.305" x2="387.648" y2="782.138"/><linearGradient xlink:href="#g" id="aC" gradientUnits="userSpaceOnUse" x1="282.932" y1="771.603" x2="247.677" y2="763.572"/><linearGradient xlink:href="#h" id="aD" gradientUnits="userSpaceOnUse" x1="394.707" y1="785.453" x2="387.976" y2="781.153"/><linearGradient xlink:href="#h" id="aE" gradientUnits="userSpaceOnUse" gradientTransform="translate(-2.618 -14.584)" x1="394.707" y1="785.453" x2="387.976" y2="781.153"/><linearGradient xlink:href="#h" id="aF" gradientUnits="userSpaceOnUse" gradientTransform="translate(-4.861 -28.794)" x1="394.707" y1="785.453" x2="387.976" y2="781.153"/><linearGradient xlink:href="#h" id="aG" gradientUnits="userSpaceOnUse" gradientTransform="translate(-7.105 -43.005)" x1="394.707" y1="785.453" x2="387.976" y2="781.153"/><linearGradient xlink:href="#h" id="aH" gradientUnits="userSpaceOnUse" gradientTransform="translate(-9.723 -57.963)" x1="394.707" y1="785.453" x2="387.976" y2="781.153"/><linearGradient xlink:href="#h" id="aI" gradientUnits="userSpaceOnUse" gradientTransform="translate(-11.966 -71.799)" x1="394.707" y1="785.453" x2="387.976" y2="781.153"/><linearGradient xlink:href="#i" id="aJ" gradientUnits="userSpaceOnUse" gradientTransform="matrix(1.13953 0 0 1.13953 -69.15 -199.46)" x1="394.707" y1="784.305" x2="387.648" y2="782.138"/><linearGradient xlink:href="#i" id="aK" gradientUnits="userSpaceOnUse" gradientTransform="matrix(1.13953 0 0 1.13953 -51.014 -90.827)" x1="394.707" y1="784.305" x2="387.648" y2="782.138"/><linearGradient xlink:href="#j" id="aL" x1="265.73" y1="885.78" x2="295.906" y2="907.334" gradientUnits="userSpaceOnUse"/><linearGradient xlink:href="#j" id="aM" gradientUnits="userSpaceOnUse" x1="265.73" y1="885.78" x2="295.906" y2="907.334" gradientTransform="translate(-30.176 47.419)"/><linearGradient xlink:href="#j" id="aN" gradientUnits="userSpaceOnUse" x1="265.73" y1="885.78" x2="295.906" y2="907.334" gradientTransform="translate(-30.176 47.419)"/><linearGradient xlink:href="#j" id="aO" gradientUnits="userSpaceOnUse" gradientTransform="translate(24.787 -54.039)" x1="265.73" y1="885.78" x2="295.906" y2="907.334"/><linearGradient xlink:href="#j" id="aP" gradientUnits="userSpaceOnUse" gradientTransform="translate(24.787 -54.039)" x1="265.73" y1="885.78" x2="295.906" y2="907.334"/><radialGradient xlink:href="#k" id="aQ" cx="331.787" cy="897.057" fx="331.787" fy="897.057" r="5.443" gradientUnits="userSpaceOnUse" gradientTransform="matrix(.5353 -.62818 1.08737 .9266 -823.615 274.553)"/><radialGradient xlink:href="#k" id="aR" gradientUnits="userSpaceOnUse" gradientTransform="matrix(.5353 -.62818 1.08737 .9266 -785.948 231.008)" cx="331.787" cy="897.057" fx="331.787" fy="897.057" r="5.443"/><radialGradient xlink:href="#l" id="aT" cx="205.377" cy="873.003" fx="205.377" fy="873.003" r="5.024" gradientUnits="userSpaceOnUse" gradientTransform="matrix(.42025 -.68048 1.1148 .68847 -855.926 411.737)"/><radialGradient xlink:href="#l" id="aU" gradientUnits="userSpaceOnUse" gradientTransform="matrix(.42025 -.68048 1.1148 .68847 -903.418 497.372)" cx="205.377" cy="873.003" fx="205.377" fy="873.003" r="5.024"/><linearGradient xlink:href="#m" id="aV" x1="184.18" y1="914.289" x2="194.128" y2="897.088" gradientUnits="userSpaceOnUse"/><linearGradient xlink:href="#n" id="aS" x1="-724.96" y1="602.662" x2="-725.109" y2="616.274" gradientUnits="userSpaceOnUse" gradientTransform="rotate(-60.453 -409.656 -238.681)"/><linearGradient xlink:href="#o" id="aW" x1="338.958" y1="247.065" x2="338.947" y2="240.549" gradientUnits="userSpaceOnUse" gradientTransform="translate(1.88 -.319)"/><radialGradient xlink:href="#p" id="aX" cx="1287.431" cy="604.313" fx="1287.431" fy="604.313" r="8.065" gradientUnits="userSpaceOnUse" gradientTransform="matrix(-3.04648 .47146 -.2776 -1.7938 5376.709 1074.463)"/><radialGradient xlink:href="#p" id="aY" gradientUnits="userSpaceOnUse" gradientTransform="matrix(-1.74798 .27051 -.15928 -1.02923 3633.93 874.176)" cx="1287.431" cy="604.313" fx="1287.431" fy="604.313" r="8.065"/><radialGradient xlink:href="#p" id="aZ" gradientUnits="userSpaceOnUse" gradientTransform="matrix(-3.04648 .47146 -.2776 -1.7938 5376.709 1074.463)" cx="1287.431" cy="604.313" fx="1287.431" fy="604.313" r="8.065"/><radialGradient xlink:href="#p" id="ba" gradientUnits="userSpaceOnUse" gradientTransform="matrix(-1.74798 .27051 -.15928 -1.02923 3633.93 874.176)" cx="1287.431" cy="604.313" fx="1287.431" fy="604.313" r="8.065"/><radialGradient xlink:href="#p" id="bb" gradientUnits="userSpaceOnUse" gradientTransform="matrix(-3.04648 .47146 -.2776 -1.7938 5376.709 1074.463)" cx="1287.431" cy="604.313" fx="1287.431" fy="604.313" r="8.065"/><radialGradient xlink:href="#p" id="bc" gradientUnits="userSpaceOnUse" gradientTransform="matrix(-1.74798 .27051 -.15928 -1.02923 3633.93 874.176)" cx="1287.431" cy="604.313" fx="1287.431" fy="604.313" r="8.065"/><radialGradient xlink:href="#p" id="bd" gradientUnits="userSpaceOnUse" gradientTransform="matrix(-3.04648 .47146 -.2776 -1.7938 5376.709 1074.463)" cx="1287.431" cy="604.313" fx="1287.431" fy="604.313" r="8.065"/><radialGradient xlink:href="#p" id="be" gradientUnits="userSpaceOnUse" gradientTransform="matrix(-1.74798 .27051 -.15928 -1.02923 3633.93 874.176)" cx="1287.431" cy="604.313" fx="1287.431" fy="604.313" r="8.065"/><radialGradient xlink:href="#p" id="bf" gradientUnits="userSpaceOnUse" gradientTransform="matrix(-3.04648 .47146 -.2776 -1.7938 5376.709 1074.463)" cx="1287.431" cy="604.313" fx="1287.431" fy="604.313" r="8.065"/><radialGradient xlink:href="#p" id="bg" gradientUnits="userSpaceOnUse" gradientTransform="matrix(-1.74798 .27051 -.15928 -1.02923 3633.93 874.176)" cx="1287.431" cy="604.313" fx="1287.431" fy="604.313" r="8.065"/><radialGradient xlink:href="#p" id="bh" gradientUnits="userSpaceOnUse" gradientTransform="matrix(-3.04648 .47146 -.2776 -1.7938 5376.709 1074.463)" cx="1287.431" cy="604.313" fx="1287.431" fy="604.313" r="8.065"/><radialGradient xlink:href="#p" id="bi" gradientUnits="userSpaceOnUse" gradientTransform="matrix(-1.74798 .27051 -.15928 -1.02923 3633.93 874.176)" cx="1287.431" cy="604.313" fx="1287.431" fy="604.313" r="8.065"/><clipPath id="bj"><path d="M1165.161 598.695L515.657 686.59c-5.877.795-11.72 2.467-14.804 9.87-3.084 7.4-.084 24.546 1.85 33.924 2.005 9.715 5.29 23.754 9.099 28.836 3.28 4.376 10.57 6.57 15.574 5.706L1170.714 653.9z" fill="#f0f" fill-rule="evenodd"/></clipPath><linearGradient xlink:href="#q" id="r" x1="706.201" y1="556.009" x2="186.652" y2="861.154" gradientUnits="userSpaceOnUse" gradientTransform="translate(-12.421 -501.045)"/><filter id="s" x="-.021" width="1.042" y="-.028" height="1.056" color-interpolation-filters="sRGB"><feGaussianBlur stdDeviation="5.737"/></filter><linearGradient xlink:href="#q" id="w" gradientUnits="userSpaceOnUse" gradientTransform="translate(0 -477.362)" x1="706.201" y1="556.009" x2="396.324" y2="930.6"/><linearGradient xlink:href="#t" id="x" gradientUnits="userSpaceOnUse" gradientTransform="translate(0 -477.362)" x1="12.145" y1="1006.996" x2="595.757" y2="644.261"/><filter id="v" x="-.106" width="1.213" y="-.141" height="1.282" color-interpolation-filters="sRGB"><feGaussianBlur stdDeviation="28.971"/></filter><clipPath id="u"><path d="M610.646 198.126s-36.392-7.401-35.775-33.308c.617-25.906 15.89-42.74 32.691-53.663 16.678-10.841 61.686-13.11 69.7-27.14 6.027-10.549 1.432-25.678-14.803-35.158-13.104-7.651-36.68-12.726-56.747-11.102-99.67 8.063-147.419 65.382-210.95 71.55-49.824 4.837-141.881-34.75-220.82-30.84-56.183 2.782-103.125 30.184-125.83 72.167C13.71 214.239 28.99 293.116 33.307 316.555c4.318 23.439 26.523 135.699 61.681 174.558 35.159 38.86 93.14 40.093 114.728 40.093 21.588 0 76.485-13.57 114.727-36.392 38.243-22.822 78.953-61.681 120.896-69.083 41.943-7.402 117.195 16.654 154.204 8.635 37.009-8.018 47.494-28.99 46.26-41.943-1.233-12.953-6-20.188-15.42-23.44-11.233-3.876-28.99 4.319-50.578.618-21.589-3.701-37.01-22.206-40.71-35.159-3.701-12.953-8.019-27.14 7.402-46.878 15.42-19.738 64.148-89.438 64.148-89.438z" fill="#f0f" fill-rule="evenodd"/></clipPath></defs><g clip-path="url(#u)"><path d="M610.646 198.126s-36.392-7.401-35.775-33.308c.617-25.906 15.89-42.74 32.691-53.663 16.678-10.841 61.686-13.11 69.7-27.14 6.027-10.549 1.432-25.678-14.803-35.158-13.104-7.651-36.68-12.726-56.747-11.102-99.67 8.063-147.419 65.382-210.95 71.55-49.824 4.837-141.881-34.75-220.82-30.84-56.183 2.782-103.125 30.184-125.83 72.167C13.71 214.239 28.99 293.116 33.307 316.555c4.318 23.439 26.523 135.699 61.681 174.558 35.159 38.86 93.14 40.093 114.728 40.093 21.588 0 76.485-13.57 114.727-36.392 38.243-22.822 78.953-61.681 120.896-69.083 41.943-7.402 117.195 16.654 154.204 8.635 37.009-8.018 47.494-28.99 46.26-41.943-1.233-12.953-6-20.188-15.42-23.44-11.233-3.876-28.99 4.319-50.578.618-21.589-3.701-37.01-22.206-40.71-35.159-3.701-12.953-8.019-27.14 7.402-46.878 15.42-19.738 64.148-89.438 64.148-89.438z" fill="#aa5900" fill-rule="evenodd"/><path d="M610.646 198.126s-36.392-7.401-35.775-33.308c.617-25.906 15.89-42.74 32.691-53.663 16.678-10.841 61.686-13.11 69.7-27.14 6.027-10.549 1.432-25.678-14.803-35.158-13.104-7.651-36.68-12.726-56.747-11.102-99.67 8.063-147.419 65.382-210.95 71.55-49.824 4.837-141.881-34.75-220.82-30.84-56.183 2.782-103.125 30.184-125.83 72.167C13.71 214.239 28.99 293.116 33.307 316.555c4.318 23.439 26.523 135.699 61.681 174.558 35.159 38.86 93.14 40.093 114.728 40.093 21.588 0 76.485-13.57 114.727-36.392 38.243-22.822 78.953-61.681 120.896-69.083 41.943-7.402 117.195 16.654 154.204 8.635 37.009-8.018 47.494-28.99 46.26-41.943-1.233-12.953-6-20.188-15.42-23.44-11.233-3.876-28.99 4.319-50.578.618-21.589-3.701-37.01-22.206-40.71-35.159-3.701-12.953-8.019-27.14 7.402-46.878 15.42-19.738 64.148-89.438 64.148-89.438z" fill="none" stroke="#000" stroke-width="100" filter="url(#v)"/><path d="M610.646 198.126s-36.392-7.401-35.775-33.308c.617-25.906 15.89-42.74 32.691-53.663 16.678-10.841 61.686-13.11 69.7-27.14 6.027-10.549 1.432-25.678-14.803-35.158-13.104-7.651-36.68-12.726-56.747-11.102-99.67 8.063-147.419 65.382-210.95 71.55-49.824 4.837-141.881-34.75-220.82-30.84-56.183 2.782-103.125 30.184-125.83 72.167C13.71 214.239 28.99 293.116 33.307 316.555c4.318 23.439 26.523 135.699 61.681 174.558 35.159 38.86 93.14 40.093 114.728 40.093 21.588 0 76.485-13.57 114.727-36.392 38.243-22.822 78.953-61.681 120.896-69.083 41.943-7.402 117.195 16.654 154.204 8.635 37.009-8.018 47.494-28.99 46.26-41.943-1.233-12.953-6-20.188-15.42-23.44-11.233-3.876-28.99 4.319-50.578.618-21.589-3.701-37.01-22.206-40.71-35.159-3.701-12.953-8.019-27.14 7.402-46.878 15.42-19.738 64.148-89.438 64.148-89.438z" fill="none" stroke="url(#w)" stroke-width="10" filter="url(#s)" opacity=".6"/><path d="M610.646 198.126s-36.392-7.401-35.775-33.308c.617-25.906 15.89-42.74 32.691-53.663 16.678-10.841 61.686-13.11 69.7-27.14 6.027-10.549 1.432-25.678-14.803-35.158-13.104-7.651-36.68-12.726-56.747-11.102-99.67 8.063-147.419 65.382-210.95 71.55-49.824 4.837-141.881-34.75-220.82-30.84-56.183 2.782-103.125 30.184-125.83 72.167C13.71 214.239 28.99 293.116 33.307 316.555c4.318 23.439 26.523 135.699 61.681 174.558 35.159 38.86 93.14 40.093 114.728 40.093 21.588 0 76.485-13.57 114.727-36.392 38.243-22.822 78.953-61.681 120.896-69.083 41.943-7.402 117.195 16.654 154.204 8.635 37.009-8.018 47.494-28.99 46.26-41.943-1.233-12.953-6-20.188-15.42-23.44-11.233-3.876-28.99 4.319-50.578.618-21.589-3.701-37.01-22.206-40.71-35.159-3.701-12.953-8.019-27.14 7.402-46.878 15.42-19.738 64.148-89.438 64.148-89.438z" fill="none" stroke="url(#x)" stroke-width="10" filter="url(#s)"/></g><g fill-rule="evenodd"><path d="M1230.411 578.506c.53-.529.926-11.112.926-11.112l8.334.132-.529 11.642z" fill="url(#y)" transform="translate(159.956 -449.86)"/><path d="M1224.987 563.69s-.384-5.948 1.852-7.937c2.267-2.017 2.4-1.84 5.027-2.381 3.369-.695 10.113-.43 12.568 1.323 2.778 1.984 3.307 4.894 3.307 4.894l-.53 7.144-3.174 3.175s-12.35.92-15.346-.397c-3.73-1.64-3.704-5.82-3.704-5.82z" fill="url(#z)" transform="translate(159.956 -449.86)"/></g><g fill-rule="evenodd"><path d="M1230.411 578.506c.53-.529.926-11.112.926-11.112l8.334.132-.529 11.642z" fill="url(#A)" transform="translate(32.365 -472.872)"/><path d="M1224.987 563.69s-.384-5.948 1.852-7.937c2.267-2.017 2.4-1.84 5.027-2.381 3.369-.695 10.113-.43 12.568 1.323 2.778 1.984 3.307 4.894 3.307 4.894l-.53 7.144-3.174 3.175s-12.35.92-15.346-.397c-3.73-1.64-3.704-5.82-3.704-5.82z" fill="url(#B)" transform="translate(32.365 -472.872)"/></g><g fill-rule="evenodd"><path d="M1230.411 578.506c.53-.529.926-11.112.926-11.112l8.334.132-.529 11.642z" fill="url(#C)" transform="translate(0 -477.362)"/><path d="M1224.987 563.69s-.384-5.948 1.852-7.937c2.267-2.017 2.4-1.84 5.027-2.381 3.369-.695 10.113-.43 12.568 1.323 2.778 1.984 3.307 4.894 3.307 4.894l-.53 7.144-3.174 3.175s-12.35.92-15.346-.397c-3.73-1.64-3.704-5.82-3.704-5.82z" fill="url(#D)" transform="translate(0 -477.362)"/></g><g fill-rule="evenodd"><path d="M1230.411 578.506c.53-.529.926-11.112.926-11.112l8.334.132-.529 11.642z" fill="url(#E)" transform="translate(63.983 -467.26)"/><path d="M1224.987 563.69s-.384-5.948 1.852-7.937c2.267-2.017 2.4-1.84 5.027-2.381 3.369-.695 10.113-.43 12.568 1.323 2.778 1.984 3.307 4.894 3.307 4.894l-.53 7.144-3.174 3.175s-12.35.92-15.346-.397c-3.73-1.64-3.704-5.82-3.704-5.82z" fill="url(#F)" transform="translate(63.983 -467.26)"/></g><g fill-rule="evenodd"><path d="M1230.411 578.506c.53-.529.926-11.112.926-11.112l8.334.132-.529 11.642z" fill="url(#G)" transform="translate(128.34 -455.473)"/><path d="M1224.987 563.69s-.384-5.948 1.852-7.937c2.267-2.017 2.4-1.84 5.027-2.381 3.369-.695 10.113-.43 12.568 1.323 2.778 1.984 3.307 4.894 3.307 4.894l-.53 7.144-3.174 3.175s-12.35.92-15.346-.397c-3.73-1.64-3.704-5.82-3.704-5.82z" fill="url(#H)" transform="translate(128.34 -455.473)"/></g><g fill-rule="evenodd"><path d="M1230.411 578.506c.53-.529.926-11.112.926-11.112l8.334.132-.529 11.642z" fill="url(#I)" transform="translate(96.91 -461.273)"/><path d="M1224.987 563.69s-.384-5.948 1.852-7.937c2.267-2.017 2.4-1.84 5.027-2.381 3.369-.695 10.113-.43 12.568 1.323 2.778 1.984 3.307 4.894 3.307 4.894l-.53 7.144-3.174 3.175s-12.35.92-15.346-.397c-3.73-1.64-3.704-5.82-3.704-5.82z" fill="url(#J)" transform="translate(96.91 -461.273)"/></g><path transform="translate(0 -477.362)" d="M1165.149 598.714s9.064-.548 14.472-4.22c7.56-5.135 25.248-23.71 25.248-23.71l203.84 37.257c11.426 2.089 19.753 12.357 22.17 20.015 3.41 10.805 3.302 24.667-4.311 34.486-7.546 9.734-16.012 15.704-31.1 15.088-16.378-.668-25.556-9.545-29.867-17.243-3.673-6.559-8.318-9.912-16.32-10.161-9.882-.308-25.556 10.16-35.718 16.627-9.413 5.99-26.48 14.472-38.181 17.551-11.7 3.08-34.794 4.619-34.794 4.619s-7.082-16.627-12.933-23.402c-5.85-6.774-17.55-15.087-28.944-14.78-9.869.267-28.02 3.044-28.02 3.044z" fill="url(#K)" fill-rule="evenodd"/><path d="M519.877 289.592c-4.87 14.608-8.99 44.572 7.116 69.667s52.447 32.785 73.787 34.084c15.79.961 5.038 13.514-2.247 16.855-9.3 4.264-32.212 11.236-60.678 8.989-29.808-2.354-70.04-16.48-97.008-14.982-26.968 1.498-57.307 17.23-73.038 26.593-15.731 9.364-87.016 54.71-113.489 64.423-25.075 9.2-39.244 2.328-41.2-12.735-1.374-10.571 32.585-57.306 39.702-84.274 7.116-26.968-2.247-72.288-8.24-96.26-5.993-23.971-16.106-70.04-5.618-92.888 10.487-22.848 28.09-31.463 48.317-36.332 20.225-4.869 54.729 2.806 80.528 8.99 25.124 6.02 56.932 8.989 97.758 1.872 40.826-7.116 55.808-16.48 71.914-17.604 16.105-1.123 16.035 14.675 13.858 21.724z" fill="#fff" fill-rule="evenodd"/><path d="M1165.161 121.332L515.657 209.23c-5.877.795-11.72 2.467-14.804 9.869-3.084 7.402-.084 24.547 1.85 33.925 2.005 9.715 5.29 23.754 9.099 28.836 3.28 4.376 10.57 6.569 15.574 5.705l643.338-111.026z" fill="#fff4c4" fill-rule="evenodd"/><circle r="3.642" cy="181.812" cx="315.852" style="isolation:auto;mix-blend-mode:normal;marker:none" color="#000" overflow="visible" fill="url(#L)" fill-rule="evenodd" enable-background="accumulate"/><circle style="isolation:auto;mix-blend-mode:normal;marker:none" cx="405.718" cy="196.943" r="3.642" color="#000" overflow="visible" fill="url(#M)" fill-rule="evenodd" enable-background="accumulate"/><circle r="3.642" cy="209.296" cx="250.692" style="isolation:auto;mix-blend-mode:normal;marker:none" color="#000" overflow="visible" fill="url(#N)" fill-rule="evenodd" enable-background="accumulate"/><circle style="isolation:auto;mix-blend-mode:normal;marker:none" cx="538.817" cy="175.326" r="3.642" color="#000" overflow="visible" fill="url(#O)" fill-rule="evenodd" enable-background="accumulate"/><circle r="3.642" cy="293.911" cx="507.627" style="isolation:auto;mix-blend-mode:normal;marker:none" color="#000" overflow="visible" fill="url(#P)" fill-rule="evenodd" enable-background="accumulate"/><circle style="isolation:auto;mix-blend-mode:normal;marker:none" cx="595.948" cy="401.688" r="3.642" color="#000" overflow="visible" fill="url(#Q)" fill-rule="evenodd" enable-background="accumulate"/><circle r="3.642" cy="403.541" cx="499.906" style="isolation:auto;mix-blend-mode:normal;marker:none" color="#000" overflow="visible" fill="url(#R)" fill-rule="evenodd" enable-background="accumulate"/><circle style="isolation:auto;mix-blend-mode:normal;marker:none" cx="406.633" cy="403.234" r="3.642" color="#000" overflow="visible" fill="url(#S)" fill-rule="evenodd" enable-background="accumulate"/><circle r="3.642" cy="457.893" cx="306.588" style="isolation:auto;mix-blend-mode:normal;marker:none" color="#000" overflow="visible" fill="url(#T)" fill-rule="evenodd" enable-background="accumulate"/><circle style="isolation:auto;mix-blend-mode:normal;marker:none" cx="221.972" cy="485.686" r="3.642" color="#000" overflow="visible" fill="url(#U)" fill-rule="evenodd" enable-background="accumulate"/><circle r="3.642" cy="350.942" cx="262.881" style="isolation:auto;mix-blend-mode:normal;marker:none" color="#000" overflow="visible" fill="url(#V)" fill-rule="evenodd" enable-background="accumulate"/><g transform="translate(0 -477.362)" color="#000"><g transform="translate(.5)" fill="#ebebeb" fill-rule="evenodd"><circle style="isolation:auto;mix-blend-mode:normal;marker:none" cx="192.544" cy="738.518" r="2.648" overflow="visible" enable-background="accumulate"/><circle r="2.648" cy="752.422" cx="194.663" style="isolation:auto;mix-blend-mode:normal;marker:none" overflow="visible" enable-background="accumulate"/><circle style="isolation:auto;mix-blend-mode:normal;marker:none" cx="196.782" cy="767.254" r="2.648" overflow="visible" enable-background="accumulate"/><circle r="2.648" cy="782.747" cx="199.165" style="isolation:auto;mix-blend-mode:normal;marker:none" overflow="visible" enable-background="accumulate"/><circle style="isolation:auto;mix-blend-mode:normal;marker:none" cx="201.417" cy="797.579" r="2.648" overflow="visible" enable-background="accumulate"/><circle r="2.648" cy="811.748" cx="203.403" style="isolation:auto;mix-blend-mode:normal;marker:none" overflow="visible" enable-background="accumulate"/></g><rect style="isolation:auto;mix-blend-mode:normal;marker:none" width="62.231" height="104.218" x="85.5" y="746.739" transform="matrix(.98756 -.15724 .14427 .98954 0 0)" ry="5.656" overflow="visible" fill="#d2d2d2" fill-rule="evenodd" enable-background="accumulate"/><g clip-path="url(#W)" fill-rule="evenodd"><g transform="rotate(-4.847 1330.08 400.842) scale(.84507)"><path style="isolation:auto;mix-blend-mode:normal;marker:none" overflow="visible" fill="#ebebeb" enable-background="accumulate" d="M229.974 839.617h23.409v13.297h-23.409zM199.474 844.299h23.409v3.933h-23.409z"/><path style="isolation:auto;mix-blend-mode:normal;marker:none" overflow="visible" fill="#acacac" enable-background="accumulate" d="M222.671 839.617h7.491v13.297h-7.491z"/><path style="isolation:auto;mix-blend-mode:normal;marker:none" overflow="visible" fill="url(#X)" enable-background="accumulate" d="M253.011 839.617h7.491v13.297h-7.491z"/><rect rx="4.476" ry="4.476" style="isolation:auto;mix-blend-mode:normal;marker:none" width="17.978" height="7.565" x="231.283" y="842.483" overflow="visible" fill="#919191" enable-background="accumulate"/><circle r="2.715" cy="846.265" cx="235.31" style="isolation:auto;mix-blend-mode:normal;marker:none" overflow="visible" fill="#434343" enable-background="accumulate"/></g><g transform="rotate(-4.847 1158.812 415.754) scale(.84507)"><path style="isolation:auto;mix-blend-mode:normal;marker:none" overflow="visible" fill="#ebebeb" enable-background="accumulate" d="M229.974 839.617h23.409v13.297h-23.409zM199.474 844.299h23.409v3.933h-23.409z"/><path style="isolation:auto;mix-blend-mode:normal;marker:none" overflow="visible" fill="#acacac" enable-background="accumulate" d="M222.671 839.617h7.491v13.297h-7.491z"/><path style="isolation:auto;mix-blend-mode:normal;marker:none" overflow="visible" fill="url(#Y)" enable-background="accumulate" d="M253.011 839.617h7.491v13.297h-7.491z"/><rect y="842.483" x="231.283" height="7.565" width="17.978" style="isolation:auto;mix-blend-mode:normal;marker:none" ry="4.476" rx="4.476" overflow="visible" fill="#919191" enable-background="accumulate"/><circle style="isolation:auto;mix-blend-mode:normal;marker:none" cx="235.31" cy="846.265" r="2.715" overflow="visible" fill="#434343" enable-background="accumulate"/></g><g transform="rotate(-4.847 985.952 468.271) scale(.84507)"><path style="isolation:auto;mix-blend-mode:normal;marker:none" overflow="visible" fill="#ebebeb" enable-background="accumulate" d="M229.974 839.617h23.409v13.297h-23.409zM199.474 844.299h23.409v3.933h-23.409z"/><path style="isolation:auto;mix-blend-mode:normal;marker:none" overflow="visible" fill="#acacac" enable-background="accumulate" d="M222.671 839.617h7.491v13.297h-7.491z"/><path style="isolation:auto;mix-blend-mode:normal;marker:none" overflow="visible" fill="url(#Z)" enable-background="accumulate" d="M253.011 839.617h7.491v13.297h-7.491z"/><rect rx="4.476" ry="4.476" style="isolation:auto;mix-blend-mode:normal;marker:none" width="17.978" height="7.565" x="231.283" y="842.483" overflow="visible" fill="#919191" enable-background="accumulate"/><circle r="2.715" cy="846.265" cx="235.31" style="isolation:auto;mix-blend-mode:normal;marker:none" overflow="visible" fill="#434343" enable-background="accumulate"/></g><g transform="rotate(-4.847 800.135 460.407) scale(.84507)"><path style="isolation:auto;mix-blend-mode:normal;marker:none" overflow="visible" fill="#ebebeb" enable-background="accumulate" d="M229.974 839.617h23.409v13.297h-23.409zM199.474 844.299h23.409v3.933h-23.409z"/><path style="isolation:auto;mix-blend-mode:normal;marker:none" overflow="visible" fill="#acacac" enable-background="accumulate" d="M222.671 839.617h7.491v13.297h-7.491z"/><path style="isolation:auto;mix-blend-mode:normal;marker:none" overflow="visible" fill="url(#aa)" enable-background="accumulate" d="M253.011 839.617h7.491v13.297h-7.491z"/><rect y="842.483" x="231.283" height="7.565" width="17.978" style="isolation:auto;mix-blend-mode:normal;marker:none" ry="4.476" rx="4.476" overflow="visible" fill="#919191" enable-background="accumulate"/><circle style="isolation:auto;mix-blend-mode:normal;marker:none" cx="235.31" cy="846.265" r="2.715" overflow="visible" fill="#434343" enable-background="accumulate"/></g><g transform="rotate(-4.847 627.65 504.076) scale(.84507)"><path style="isolation:auto;mix-blend-mode:normal;marker:none" overflow="visible" fill="#ebebeb" enable-background="accumulate" d="M229.974 839.617h23.409v13.297h-23.409zM199.474 844.299h23.409v3.933h-23.409z"/><path style="isolation:auto;mix-blend-mode:normal;marker:none" overflow="visible" fill="#acacac" enable-background="accumulate" d="M222.671 839.617h7.491v13.297h-7.491z"/><path style="isolation:auto;mix-blend-mode:normal;marker:none" overflow="visible" fill="url(#ab)" enable-background="accumulate" d="M253.011 839.617h7.491v13.297h-7.491z"/><rect rx="4.476" ry="4.476" style="isolation:auto;mix-blend-mode:normal;marker:none" width="17.978" height="7.565" x="231.283" y="842.483" overflow="visible" fill="#919191" enable-background="accumulate"/><circle r="2.715" cy="846.265" cx="235.31" style="isolation:auto;mix-blend-mode:normal;marker:none" overflow="visible" fill="#434343" enable-background="accumulate"/></g><g transform="rotate(-4.847 459.869 541.297) scale(.84507)"><path style="isolation:auto;mix-blend-mode:normal;marker:none" overflow="visible" fill="#ebebeb" enable-background="accumulate" d="M229.974 839.617h23.409v13.297h-23.409zM199.474 844.299h23.409v3.933h-23.409z"/><path style="isolation:auto;mix-blend-mode:normal;marker:none" overflow="visible" fill="#acacac" enable-background="accumulate" d="M222.671 839.617h7.491v13.297h-7.491z"/><path style="isolation:auto;mix-blend-mode:normal;marker:none" overflow="visible" fill="url(#ac)" enable-background="accumulate" d="M253.011 839.617h7.491v13.297h-7.491z"/><rect y="842.483" x="231.283" height="7.565" width="17.978" style="isolation:auto;mix-blend-mode:normal;marker:none" ry="4.476" rx="4.476" overflow="visible" fill="#919191" enable-background="accumulate"/><circle style="isolation:auto;mix-blend-mode:normal;marker:none" cx="235.31" cy="846.265" r="2.715" overflow="visible" fill="#434343" enable-background="accumulate"/></g></g><rect ry="5.656" transform="matrix(.98756 -.15724 .14427 .98954 0 0)" y="746.739" x="85.5" height="104.218" width="62.231" style="isolation:auto;mix-blend-mode:normal;marker:none" overflow="visible" fill="none" stroke="url(#ad)" stroke-width="2" stroke-linecap="round" enable-background="accumulate"/><circle r="3.973" cy="789.898" cx="256.637" style="isolation:auto;mix-blend-mode:normal;marker:none" overflow="visible" fill="url(#ae)" fill-rule="evenodd" enable-background="accumulate"/><circle style="isolation:auto;mix-blend-mode:normal;marker:none" cx="258.885" cy="803.757" r="3.973" overflow="visible" fill="url(#af)" fill-rule="evenodd" enable-background="accumulate"/><circle r="3.973" cy="775.103" cx="254.015" style="isolation:auto;mix-blend-mode:normal;marker:none" overflow="visible" fill="url(#ag)" fill-rule="evenodd" enable-background="accumulate"/><circle style="isolation:auto;mix-blend-mode:normal;marker:none" cx="251.394" cy="760.87" r="3.973" overflow="visible" fill="url(#ah)" fill-rule="evenodd" enable-background="accumulate"/><circle r="3.973" cy="746.076" cx="249.334" style="isolation:auto;mix-blend-mode:normal;marker:none" overflow="visible" fill="url(#ai)" fill-rule="evenodd" enable-background="accumulate"/><circle style="isolation:auto;mix-blend-mode:normal;marker:none" cx="246.524" cy="731.281" r="3.973" overflow="visible" fill="url(#aj)" fill-rule="evenodd" enable-background="accumulate"/><rect transform="rotate(-9.09)" rx="3.443" ry="3.443" y="846.758" x="79.917" height="15.83" width="29.749" style="isolation:auto;mix-blend-mode:normal;marker:none" overflow="visible" fill="#dcdcdc" fill-rule="evenodd" enable-background="accumulate"/></g><g transform="matrix(.9581 0 0 .9581 16.135 -446.037)" color="#000"><rect transform="matrix(.98997 -.1413 .15476 .98795 0 0)" rx="13.671" ry="13.953" y="746.752" x="251.412" height="96.041" width="26.839" style="isolation:auto;mix-blend-mode:normal;marker:none" overflow="visible" fill="none" stroke="url(#ak)" stroke-width="2.088" stroke-linecap="round" enable-background="accumulate"/><circle r="4.02" cy="783.584" cx="391.061" style="isolation:auto;mix-blend-mode:normal;marker:none" overflow="visible" fill="url(#al)" fill-rule="evenodd" enable-background="accumulate"/><circle style="isolation:auto;mix-blend-mode:normal;marker:none" cx="388.443" cy="769" r="4.02" overflow="visible" fill="url(#am)" fill-rule="evenodd" enable-background="accumulate"/><circle r="4.02" cy="754.789" cx="386.2" style="isolation:auto;mix-blend-mode:normal;marker:none" overflow="visible" fill="url(#an)" fill-rule="evenodd" enable-background="accumulate"/><circle style="isolation:auto;mix-blend-mode:normal;marker:none" cx="383.956" cy="740.579" r="4.02" overflow="visible" fill="url(#ao)" fill-rule="evenodd" enable-background="accumulate"/><circle r="4.02" cy="725.621" cx="381.338" style="isolation:auto;mix-blend-mode:normal;marker:none" overflow="visible" fill="url(#ap)" fill-rule="evenodd" enable-background="accumulate"/><circle style="isolation:auto;mix-blend-mode:normal;marker:none" cx="379.094" cy="711.785" r="4.02" overflow="visible" fill="url(#aq)" fill-rule="evenodd" enable-background="accumulate"/><circle r="4.581" cy="693.461" cx="376.477" style="isolation:auto;mix-blend-mode:normal;marker:none" overflow="visible" fill="url(#ar)" fill-rule="evenodd" enable-background="accumulate"/><circle style="isolation:auto;mix-blend-mode:normal;marker:none" cx="394.613" cy="802.094" r="4.581" overflow="visible" fill="url(#as)" fill-rule="evenodd" enable-background="accumulate"/></g><g transform="matrix(.93775 0 0 .93775 111.296 -444.085)" color="#000"><rect style="isolation:auto;mix-blend-mode:normal;marker:none" width="26.839" height="96.041" x="251.412" y="746.752" ry="14.256" rx="13.968" transform="matrix(.98997 -.1413 .15476 .98795 0 0)" overflow="visible" fill="none" stroke="url(#at)" stroke-width="2.133" stroke-linecap="round" enable-background="accumulate"/><circle style="isolation:auto;mix-blend-mode:normal;marker:none" cx="391.061" cy="783.584" r="4.02" overflow="visible" fill="url(#au)" fill-rule="evenodd" enable-background="accumulate"/><circle r="4.02" cy="769" cx="388.443" style="isolation:auto;mix-blend-mode:normal;marker:none" overflow="visible" fill="url(#av)" fill-rule="evenodd" enable-background="accumulate"/><circle style="isolation:auto;mix-blend-mode:normal;marker:none" cx="386.2" cy="754.789" r="4.02" overflow="visible" fill="url(#aw)" fill-rule="evenodd" enable-background="accumulate"/><circle r="4.02" cy="740.579" cx="383.956" style="isolation:auto;mix-blend-mode:normal;marker:none" overflow="visible" fill="url(#ax)" fill-rule="evenodd" enable-background="accumulate"/><circle style="isolation:auto;mix-blend-mode:normal;marker:none" cx="381.338" cy="725.621" r="4.02" overflow="visible" fill="url(#ay)" fill-rule="evenodd" enable-background="accumulate"/><circle r="4.02" cy="711.785" cx="379.094" style="isolation:auto;mix-blend-mode:normal;marker:none" overflow="visible" fill="url(#az)" fill-rule="evenodd" enable-background="accumulate"/><circle style="isolation:auto;mix-blend-mode:normal;marker:none" cx="376.477" cy="693.461" r="4.581" overflow="visible" fill="url(#aA)" fill-rule="evenodd" enable-background="accumulate"/><circle r="4.581" cy="802.094" cx="394.613" style="isolation:auto;mix-blend-mode:normal;marker:none" overflow="visible" fill="url(#aB)" fill-rule="evenodd" enable-background="accumulate"/></g><g transform="rotate(11.539 2654.024 146.153)" color="#000"><rect transform="matrix(.98997 -.1413 .15476 .98795 0 0)" rx="13.099" ry="13.368" y="746.752" x="251.412" height="96.041" width="26.839" style="isolation:auto;mix-blend-mode:normal;marker:none" overflow="visible" fill="none" stroke="url(#aC)" stroke-width="2" stroke-linecap="round" enable-background="accumulate"/><circle r="4.02" cy="783.584" cx="391.061" style="isolation:auto;mix-blend-mode:normal;marker:none" overflow="visible" fill="url(#aD)" fill-rule="evenodd" enable-background="accumulate"/><circle style="isolation:auto;mix-blend-mode:normal;marker:none" cx="388.443" cy="769" r="4.02" overflow="visible" fill="url(#aE)" fill-rule="evenodd" enable-background="accumulate"/><circle r="4.02" cy="754.789" cx="386.2" style="isolation:auto;mix-blend-mode:normal;marker:none" overflow="visible" fill="url(#aF)" fill-rule="evenodd" enable-background="accumulate"/><circle style="isolation:auto;mix-blend-mode:normal;marker:none" cx="383.956" cy="740.579" r="4.02" overflow="visible" fill="url(#aG)" fill-rule="evenodd" enable-background="accumulate"/><circle r="4.02" cy="725.621" cx="381.338" style="isolation:auto;mix-blend-mode:normal;marker:none" overflow="visible" fill="url(#aH)" fill-rule="evenodd" enable-background="accumulate"/><circle style="isolation:auto;mix-blend-mode:normal;marker:none" cx="379.094" cy="711.785" r="4.02" overflow="visible" fill="url(#aI)" fill-rule="evenodd" enable-background="accumulate"/><circle r="4.581" cy="693.461" cx="376.477" style="isolation:auto;mix-blend-mode:normal;marker:none" overflow="visible" fill="url(#aJ)" fill-rule="evenodd" enable-background="accumulate"/><circle style="isolation:auto;mix-blend-mode:normal;marker:none" cx="394.613" cy="802.094" r="4.581" overflow="visible" fill="url(#aK)" fill-rule="evenodd" enable-background="accumulate"/></g><g transform="translate(0 -477.362)"><circle r="18.321" cy="896.711" cx="280.818" style="isolation:auto;mix-blend-mode:normal;marker:none" color="#000" overflow="visible" fill="url(#aL)" fill-rule="evenodd" enable-background="accumulate"/><circle style="isolation:auto;mix-blend-mode:normal;marker:none" cx="280.818" cy="896.711" r="10.931" color="#000" overflow="visible" fill="#fff" fill-rule="evenodd" enable-background="accumulate"/><g style="line-height:125%" font-weight="400" font-size="6.25" font-family="FreeSans" letter-spacing="0" word-spacing="0"><path d="M267 898.007l-.1-.976.392-.04q.146.626.308.804.163.178.688.27l.036.36-4.408.45-.056-.547 3.14-.32zM268.88 904.396q1.225-.93 2.114.176.396.491.36 1.025-.035.534-.483.895-.642.517-1.63.108l-.654-.275q-.425-.18-.696-.186-.27-.007-.517.135l1.462 1.816-.424.34-1.85-2.297q.594-.43 1.061-.477.473-.051 1.214.243l.614.244q.644.252 1.058-.081.277-.224.306-.567.028-.344-.207-.636-.521-.648-1.383-.034l-.345-.429zM276.593 909.028q-.451-.149-.706.044-.246.188-.394.594l-.522-.173q.479-1.35 1.767-.924.599.198.835.619.243.422.064.962-.212.641-.876.678.337.256.425.549.09.286-.044.69-.198.599-.707.826-.504.228-1.15.015-1.294-.428-.94-1.818l.522.172q-.121.467.02.757t.568.432q.41.135.714-.008.306-.15.437-.547.253-.766-.62-1.054l-.22-.067-.066-.021.147-.445q.568.174.842.12.28-.052.408-.438.11-.332-.03-.589-.13-.26-.474-.374zM285.022 911.997l-1.808.471-.147-.563 1.246-3.204.393-.102.724 2.782.635-.165.125.478-.635.165.267 1.028-.532.139-.268-1.029zm-.124-.477l-.488-1.875-.855 2.224 1.343-.35zM290.779 904.242l.4.367-1.245 1.36.795.965q.05-.454.355-.785.43-.47 1-.482.57-.021 1.054.422.516.473.556 1.086.04.613-.411 1.106-.173.19-.362.313-.185.118-.338.174-.153.046-.325.05-.173-.006-.284-.023-.112-.026-.256-.082-.144-.064-.194-.093l-.141-.087.371-.406q.68.36 1.161-.166.304-.331.274-.706-.025-.38-.376-.7-.364-.334-.748-.33-.39 0-.69.327-.173.189-.226.386-.058.192-.018.491l-.342.374-1.555-1.874 1.545-1.687zM295.189 900.642q-.58-.097-1-.275-.426-.18-.653-.376-.226-.202-.344-.444-.123-.249-.14-.448-.017-.205.02-.421.083-.5.44-.776.357-.282.907-.272l-.09.542q-.326.015-.531.177-.205.163-.252.446-.078.469.31.794.385.317 1.185.458-.427-.44-.319-1.087.098-.585.55-.896.45-.311 1.061-.21.641.108.992.585.346.47.242 1.092-.245 1.468-2.378 1.11zm.003-1.533q-.067.4.15.696.21.295.617.363.419.07.745-.135.32-.206.383-.588.063-.376-.16-.667-.23-.292-.644-.361-.437-.073-.728.112-.297.185-.363.58zM291.605 890.368l.424-.183q1.216.291 2.267.314 1.043.018 2.09-.237l.234.54q-1.103.204-2.02.178-.917-.026-2.27-.305l.95 2.197-.5.216-1.175-2.72zM288.244 884.172q-.432-.725-.019-1.343.337-.504.897-.588.555-.088 1.1.277.546.365.682.915.128.551-.21 1.055-.41.613-1.24.494.163.364.16.603-.001.24-.172.494-.288.431-.779.501-.496.067-.984-.26-.488-.326-.61-.806-.128-.484.16-.915.174-.26.394-.353.22-.094.621-.074zm-.649 1.273q.064.276.355.47.29.195.575.152.276-.041.453-.306.174-.26.11-.535-.072-.274-.363-.469-.286-.191-.567-.153-.28.037-.454.297-.181.27-.109.544zm.967-1.647q.077.345.42.575.343.229.691.169.345-.055.56-.377.216-.322.144-.664-.077-.345-.415-.57-.348-.234-.693-.179-.354.057-.573.384-.215.322-.134.662zM279.49 882.026q.008-.588.12-1.036.113-.442.28-.696.16-.254.386-.414.221-.153.422-.2.2-.047.42-.044.506.007.839.318.327.311.4.856l-.55-.008q-.064-.32-.255-.497-.191-.178-.479-.182-.475-.007-.731.42-.262.435-.28 1.247.42-.488 1.02-.48.6.01.975.408.375.4.367 1.018-.01.65-.422 1.063-.418.42-1.05.41-1.493-.021-1.462-2.183zm1.476 1.702q.38.005.635-.266.254-.271.26-.69.006-.444-.222-.71-.227-.259-.627-.265-.4-.006-.66.254-.266.258-.272.664-.006.432.246.717.252.29.64.296zM273.504 884.97l.83-.522.21.333q-.497.408-.584.633-.088.225.063.735l-.307.193-2.357-3.752.466-.293 1.679 2.673zM271.532 885.026q.385.401.612.773.227.371.288.642.065.275.025.522t-.136.408q-.1.166-.25.31-1.045 1.004-2.656-.672-.758-.789-.89-1.468-.133-.67.376-1.16.514-.493 1.183-.33.673.169 1.448.975zm-1.677 1.629q1.239 1.289 1.879.674.64-.615-.612-1.917-1.265-1.316-1.896-.71-.333.32-.179.797.154.476.808 1.156z"/></g><path d="M263.784 896.711a16.935 16.935 0 0 0 16.936 16.936 16.935 16.935 0 0 0 16.935-16.936 16.935 16.935 0 0 0-16.935-16.935 16.935 16.935 0 0 0-16.936 16.935z" style="isolation:auto;mix-blend-mode:normal;marker:none" color="#000" overflow="visible" fill="none" enable-background="accumulate"/><g style="line-height:125%" font-weight="400" font-size="6.25" font-family="FreeSans" letter-spacing="0" word-spacing="0"><path d="M274.465 894.9v4.044h-.581V894.9h-1.5v-.513h3.575v.513h-1.494zM280.801 896.737q0 1.013-.6 1.682-.6.668-1.6.668-.987 0-1.593-.656-.607-.662-.607-1.731t.607-1.725q.606-.663 1.587-.663 1 0 1.6.663.606.662.606 1.762zm-2.206-1.912q-.725 0-1.169.519-.443.512-.443 1.356 0 .844.443 1.362.45.513 1.175.513.725 0 1.17-.513.45-.512.45-1.337 0-.863-.445-1.381-.443-.52-1.18-.52zM285.109 894.387v4.557h-.656l-2.357-3.694v3.694h-.55v-4.557h.632l2.381 3.725v-3.725h.55zM286.693 896.869v1.562h2.688v.513h-3.27v-4.557h3.157v.513h-2.575v1.456h2.481v.513h-2.48z" /></g><circle style="isolation:auto;mix-blend-mode:normal;marker:none" cx="280.818" cy="896.711" r="18.321" color="#000" overflow="visible" fill="url(#aL)" fill-rule="evenodd" enable-background="accumulate"/><circle r="10.931" cy="896.711" cx="280.818" style="isolation:auto;mix-blend-mode:normal;marker:none" color="#000" overflow="visible" fill="#fff" fill-rule="evenodd" enable-background="accumulate"/><g style="line-height:125%" font-weight="400" font-size="6.25" font-family="FreeSans" letter-spacing="0" word-spacing="0" fill="gray"><path  d="M269.314 904.139l-.538-.82.329-.217q.417.489.644.572.226.083.734-.077l.198.303-3.706 2.43-.301-.46 2.64-1.731zM273.924 908.945q.66-1.39 1.958-.818.578.254.792.745.214.49-.017 1.016-.333.755-1.397.847l-.708.057q-.46.036-.703.155-.244.118-.397.358l2.134.939-.22.498-2.7-1.189q.33-.654.723-.911.395-.263 1.189-.344l.657-.066q.688-.073.902-.559.143-.326.01-.644-.133-.318-.476-.47-.761-.334-1.244.607l-.503-.221zM282.903 909.505q-.469.076-.606.364-.132.28-.076.708l-.543.087q-.196-1.418 1.143-1.633.623-.1 1.026.164.41.264.5.825.107.667-.465 1.005.417.073.63.292.21.213.278.632.1.624-.247 1.06-.342.434-1.015.542-1.345.216-1.67-1.18l.542-.088q.107.47.366.663.26.192.703.12.426-.068.63-.335.203-.273.137-.686-.128-.796-1.035-.65l-.228.042-.068.011-.074-.463q.584-.106.803-.28.225-.176.16-.577-.055-.346-.297-.51-.236-.17-.594-.113zM291.753 908.26l-1.388 1.25-.39-.432-.369-3.418.302-.272 1.924 2.137.487-.44.33.367-.487.44.711.79-.409.367-.71-.79zm-.33-.367l-1.296-1.44.265 2.368 1.03-.928zM293.292 898.725l.525.141-.48 1.78 1.15.491q-.163-.426-.046-.86.165-.616.666-.889.496-.28 1.13-.11.676.182.994.708.318.526.144 1.171-.066.248-.178.444-.11.19-.219.31-.114.112-.266.194-.156.074-.262.11-.112.029-.265.046-.158.01-.215.007-.058-.003-.166-.013l.143-.53q.769.006.954-.682.117-.435-.082-.754-.197-.325-.656-.448-.476-.129-.816.052-.346.178-.462.607-.066.247-.023.447.038.198.21.445l-.131.489-2.243-.947.594-2.21zM295.55 893.498q-.56.18-1.015.216-.46.038-.752-.032-.294-.076-.51-.236-.224-.164-.331-.333-.11-.175-.177-.383-.155-.482.034-.891.188-.416.68-.66l.17.523q-.283.164-.39.402-.107.238-.018.511.146.452.641.562.487.105 1.262-.14-.581-.192-.783-.817-.183-.565.075-1.048.257-.484.846-.675.618-.2 1.15.062.523.258.717.858.458 1.416-1.6 2.081zm-.704-1.362q.125.386.454.55.322.164.715.038.404-.131.599-.463.189-.33.07-.7-.118-.362-.45-.517-.339-.154-.737-.025-.423.137-.595.435-.179.301-.056.682zM287.638 886.029l.292-.359q1.213-.3 2.157-.765.934-.463 1.746-1.172l.456.371q-.885.69-1.711 1.089-.826.399-2.156.774l1.855 1.513-.344.421-2.295-1.872zM281.801 882.076q-.718-.445-.635-1.184.067-.603.526-.935.452-.333 1.104-.26.652.072 1.026.498.367.43.3 1.033-.082.733-.874 1.01.312.248.42.461.109.214.075.518-.058.515-.46.804-.41.287-.994.222-.584-.065-.914-.435-.336-.37-.278-.886.034-.31.187-.495.153-.184.517-.351zm.01 1.429q.184.215.532.254.348.039.58-.13.226-.164.261-.48.035-.311-.148-.527-.19-.21-.539-.248-.341-.038-.573.124-.232.163-.267.474-.036.323.154.533zm.1-1.907q.228.27.638.316.41.046.691-.168.281-.208.324-.593.043-.385-.178-.655-.228-.27-.632-.316-.416-.046-.697.162-.288.213-.331.604-.043.385.185.65zM273.042 884.202q-.264-.526-.37-.976-.104-.444-.073-.746.025-.299.153-.545.126-.238.282-.372.157-.134.353-.232.452-.227.891-.104.433.125.75.575l-.492.246q-.205-.254-.456-.324-.252-.07-.509.06-.425.212-.455.71-.033.505.325 1.235.148-.626.684-.895.537-.268 1.054-.087.517.18.794.734.292.581.116 1.138-.179.564-.743.847-1.336.669-2.304-1.265zm2.094.831q.34-.171.441-.528.1-.358-.087-.733-.199-.396-.523-.528-.322-.125-.68.054-.357.179-.468.528-.118.353.064.716.194.386.548.522.358.143.705-.03zM269.084 889.57l.497-.845.34.2q-.254.59-.228.83.026.24.395.624l-.184.312-3.82-2.245.279-.474 2.72 1.599zM267.36 890.53q.526.178.899.403.372.225.55.437.186.215.263.452.078.238.067.426-.012.193-.079.389-.465 1.373-2.667.627-1.036-.351-1.466-.893-.426-.534-.2-1.203.23-.675.898-.837.675-.161 1.734.198zm-.74 2.217q1.694.574 1.979-.267.285-.84-1.426-1.42-1.729-.586-2.01.243-.148.438.208.79.356.351 1.25.654z"/></g><path style="isolation:auto;mix-blend-mode:normal;marker:none" d="M263.784 896.711a16.935 16.935 0 0 0 16.936 16.936 16.935 16.935 0 0 0 16.935-16.936 16.935 16.935 0 0 0-16.935-16.935 16.935 16.935 0 0 0-16.936 16.935z" color="#000" overflow="visible" fill="none" enable-background="accumulate"/><g style="line-height:125%" font-weight="400" font-size="5" font-family="FreeSans" letter-spacing="0" word-spacing="0" fill="gray"><path d="M281.43 891.272l-3.195.509-.073-.46 3.195-.508-.189-1.185.405-.065.45 2.825-.405.064-.188-1.18zM280.776 896.509q-.8.127-1.404-.262-.604-.39-.73-1.18-.124-.78.318-1.342.447-.562 1.292-.697.844-.134 1.439.262.6.396.723 1.17.126.791-.322 1.348-.447.563-1.316.701zm1.233-1.984q-.091-.572-.557-.858-.46-.286-1.127-.18-.667.106-1.02.522-.349.42-.258.993.091.573.552.859.462.291 1.113.187.682-.108 1.036-.524.354-.416.261-.999zM283.174 899.617l-3.6.573-.082-.519 2.622-2.326-2.918.465-.07-.435 3.6-.573.08.499-2.644 2.35 2.943-.469.07.435zM281.413 901.18l-1.234.197.338 2.123-.405.065-.411-2.583 3.6-.573.396 2.493-.405.065-.323-2.034-1.151.183.312 1.96-.405.065-.312-1.96z" /></g></g><g transform="translate(0 -477.362)"><circle style="isolation:auto;mix-blend-mode:normal;marker:none" cx="250.642" cy="944.13" r="18.321" color="#000" overflow="visible" fill="url(#aM)" fill-rule="evenodd" enable-background="accumulate"/><circle r="10.931" cy="944.13" cx="250.642" style="isolation:auto;mix-blend-mode:normal;marker:none" color="#000" overflow="visible" fill="#fff" fill-rule="evenodd" enable-background="accumulate"/><g style="line-height:125%" font-weight="400" font-size="6.25" font-family="FreeSans" letter-spacing="0" word-spacing="0"><path d="M236.824 945.426l-.1-.976.393-.04q.145.626.308.804.163.178.687.27l.037.36-4.409.45-.055-.547 3.14-.32zM238.704 951.815q1.225-.93 2.115.175.396.492.36 1.026-.035.534-.483.895-.643.517-1.63.108l-.655-.275q-.425-.18-.695-.187-.27-.007-.517.136l1.461 1.816-.423.34-1.85-2.297q.593-.43 1.06-.477.473-.051 1.215.242l.613.245q.644.252 1.058-.082.278-.223.306-.567.028-.343-.207-.635-.521-.648-1.383-.034l-.345-.429zM246.417 956.447q-.451-.149-.706.043-.246.189-.393.594l-.522-.172q.478-1.35 1.766-.924.6.198.836.619.242.422.063.962-.211.64-.875.678.336.256.424.549.09.286-.043.69-.198.599-.708.825-.503.23-1.15.015-1.294-.427-.94-1.817l.523.172q-.122.467.02.757.14.29.568.431.41.136.713-.008.306-.149.437-.546.253-.766-.619-1.054l-.221-.067-.066-.021.147-.445q.568.174.843.12.28-.052.407-.438.11-.332-.029-.589-.13-.26-.475-.374zM254.847 959.416l-1.809.47-.146-.562 1.246-3.204.393-.102.724 2.782.635-.165.124.478-.635.165.267 1.028-.532.139-.267-1.029zm-.125-.478l-.487-1.875-.855 2.225 1.342-.35zM260.603 951.66l.4.368-1.244 1.36.794.965q.05-.454.355-.786.43-.47 1-.482.57-.02 1.054.423.517.473.557 1.086.04.613-.412 1.106-.173.19-.362.313-.185.118-.337.174-.153.046-.326.05-.172-.007-.284-.024-.111-.026-.255-.081-.145-.065-.195-.093l-.14-.087.37-.406q.68.36 1.161-.166.304-.332.275-.706-.026-.38-.376-.7-.364-.334-.75-.33-.388 0-.688.326-.173.19-.226.386-.058.193-.019.492l-.342.374-1.555-1.874 1.545-1.687zM265.013 948.06q-.58-.096-1-.274-.426-.18-.653-.376-.226-.202-.344-.444-.123-.249-.14-.448-.016-.206.02-.421.083-.5.44-.776.358-.282.907-.273l-.09.543q-.326.015-.53.177-.205.163-.253.446-.078.469.311.794.384.317 1.185.457-.428-.439-.32-1.086.099-.585.55-.896.451-.311 1.061-.21.642.108.993.585.346.47.241 1.092-.245 1.467-2.378 1.11zm.003-1.533q-.067.401.15.697.21.295.617.363.42.07.745-.135.32-.206.384-.588.063-.376-.161-.667-.23-.292-.643-.361-.438-.074-.729.112-.297.185-.363.58zM261.43 937.787l.424-.183q1.215.291 2.267.313 1.043.02 2.09-.236l.233.54q-1.103.204-2.02.178-.917-.026-2.27-.306l.95 2.198-.5.215-1.175-2.719zM258.068 931.59q-.432-.724-.018-1.343.337-.503.897-.588.555-.087 1.1.278.546.365.682.914.127.552-.21 1.056-.41.613-1.24.494.162.364.16.603-.002.24-.172.494-.289.431-.78.501-.495.067-.984-.26-.488-.326-.61-.807-.128-.483.16-.915.174-.26.395-.353.22-.093.62-.073zm-.648 1.274q.063.276.354.47.291.195.576.152.275-.041.452-.306.174-.26.11-.536-.072-.274-.363-.468-.285-.191-.566-.154-.281.038-.455.298-.18.27-.108.544zm.966-1.647q.078.345.42.574.343.23.692.17.345-.055.56-.377.216-.322.144-.664-.078-.345-.416-.571-.348-.233-.693-.178-.353.057-.572.384-.216.322-.135.662zM249.314 929.445q.008-.588.121-1.036.113-.442.279-.696.16-.254.387-.414.22-.153.421-.2.201-.047.42-.044.506.007.84.318.326.311.4.856l-.55-.008q-.065-.32-.256-.497-.191-.178-.479-.182-.475-.007-.73.42-.263.435-.28 1.247.419-.488 1.019-.48.6.01.975.408.376.4.367 1.018-.009.65-.421 1.063-.419.419-1.05.41-1.494-.021-1.463-2.184zm1.476 1.702q.381.005.635-.266t.26-.69q.006-.444-.221-.71-.228-.26-.628-.265-.4-.006-.66.253-.266.26-.272.665-.006.432.246.716.253.291.64.297zM243.328 932.388l.83-.522.21.334q-.496.408-.584.633-.087.224.063.735l-.307.193-2.357-3.753.466-.292 1.679 2.672zM241.356 932.445q.386.401.613.773.227.37.287.642.066.275.025.522-.04.247-.136.408-.1.166-.25.31-1.045 1.004-2.656-.672-.758-.789-.89-1.468-.133-.67.377-1.16.513-.493 1.182-.33.673.168 1.448.975zm-1.676 1.629q1.238 1.289 1.878.674.64-.615-.612-1.918-1.264-1.315-1.895-.71-.334.321-.18.797.155.476.809 1.157z" /></g><path style="isolation:auto;mix-blend-mode:normal;marker:none" d="M233.609 944.13a16.935 16.935 0 0 0 16.935 16.935 16.935 16.935 0 0 0 16.935-16.935 16.935 16.935 0 0 0-16.935-16.935 16.935 16.935 0 0 0-16.935 16.935z" color="#000" overflow="visible" fill="none" enable-background="accumulate"/><g style="line-height:125%" font-weight="400" font-size="6.25" font-family="FreeSans" letter-spacing="0" word-spacing="0"><path d="M244.29 942.319v4.043h-.582v-4.043h-1.5v-.513h3.575v.513h-1.494zM250.626 944.156q0 1.013-.6 1.681-.6.67-1.6.67-.988 0-1.594-.657-.606-.663-.606-1.731 0-1.069.606-1.725.606-.663 1.588-.663 1 0 1.6.663.606.662.606 1.762zm-2.206-1.912q-.725 0-1.17.518-.443.513-.443 1.357 0 .843.444 1.362.45.513 1.175.513.725 0 1.169-.513.45-.512.45-1.337 0-.863-.444-1.382-.444-.518-1.181-.518zM254.933 941.806v4.556h-.656l-2.356-3.693v3.693h-.55v-4.556h.631l2.381 3.725v-3.725h.55zM256.518 944.287v1.563h2.687v.512h-3.269v-4.556h3.157v.513h-2.575v1.456h2.48v.512h-2.48z" /></g><circle r="18.321" cy="944.13" cx="250.642" style="isolation:auto;mix-blend-mode:normal;marker:none" color="#000" overflow="visible" fill="url(#aN)" fill-rule="evenodd" enable-background="accumulate"/><circle style="isolation:auto;mix-blend-mode:normal;marker:none" cx="250.642" cy="944.13" r="10.931" color="#000" overflow="visible" fill="#fff" fill-rule="evenodd" enable-background="accumulate"/><g style="line-height:125%" font-weight="400" font-size="6.25" font-family="FreeSans" letter-spacing="0" word-spacing="0" fill="gray"><path d="M262.98 937.599l.453.87-.349.182q-.367-.528-.584-.633-.217-.105-.738.005l-.168-.322 3.929-2.05.254.487-2.798 1.46zM258.867 932.36q-.793 1.317-2.029.62-.55-.31-.714-.82-.165-.509.118-1.01.405-.718 1.473-.704l.71.014q.462.009.716-.085.253-.093.43-.317l-2.03-1.146.267-.473 2.569 1.45q-.392.618-.809.835-.42.223-1.217.225h-.66q-.692.004-.953.467-.176.31-.075.64.101.33.428.514.724.409 1.297-.48l.48.27zM249.988 930.913q.474-.029.639-.302.16-.266.146-.697l.549-.033q.055 1.43-1.3 1.512-.63.038-1.004-.265-.382-.303-.416-.87-.04-.674.562-.955-.407-.113-.597-.352-.19-.233-.215-.657-.038-.63.351-1.03.383-.398 1.063-.439 1.36-.082 1.546 1.34l-.549.034q-.06-.479-.298-.696-.239-.217-.688-.19-.43.026-.66.271-.229.252-.204.67.049.805.966.75l.23-.02.07-.005.027.468q-.592.048-.827.2-.241.153-.216.558.02.35.245.536.218.194.58.172zM241.058 931.276l1.506-1.107.344.469.029 3.438-.327.24-1.703-2.316-.529.388-.292-.398.529-.388-.63-.856.444-.326.629.856zm.292.398l1.148 1.561-.03-2.383-1.118.822zM238.582 940.612l-.508-.193.653-1.724-1.095-.602q.12.44-.039.86-.226.597-.751.819-.522.23-1.135-.003-.655-.248-.92-.802-.264-.555-.027-1.18.091-.24.221-.425.128-.178.249-.286.125-.1.284-.167.162-.058.272-.084.114-.017.268-.019.158.007.215.015.057.008.163.028l-.195.515q-.764-.083-1.017.584-.159.42.007.757.165.343.609.512.461.175.817.029.362-.144.52-.559.09-.24.067-.442-.018-.2-.165-.464l.18-.473 2.138 1.164-.81 2.14zM235.819 945.589q.574-.125 1.03-.115.462.009.746.107.285.105.484.285.206.186.296.365.091.184.138.398.107.495-.122.884-.228.394-.742.589l-.117-.538q.297-.134.427-.36.13-.227.07-.508-.101-.464-.583-.622-.475-.153-1.27.013.56.25.698.891.126.58-.178 1.036-.304.456-.909.587-.635.138-1.138-.175-.495-.308-.629-.925-.315-1.454 1.799-1.912zm.564 1.425q-.086-.397-.397-.592-.304-.196-.707-.108-.416.09-.642.401-.221.31-.139.689.081.372.397.56.321.186.73.097.434-.094.636-.374.207-.282.122-.673zM242.952 953.805l-.327.328q-1.237.179-2.222.548-.976.368-1.854.993l-.416-.414q.949-.599 1.81-.914.861-.316 2.222-.557l-1.696-1.69.384-.385 2.099 2.091zM248.368 958.317q.67.513.515 1.24-.127.594-.616.879-.483.287-1.125.15-.642-.137-.971-.598-.323-.465-.196-1.058.154-.72.969-.917-.286-.279-.372-.502-.087-.223-.023-.522.108-.507.538-.754.436-.246 1.01-.123.575.122.866.523.298.402.19.91-.066.305-.236.473-.17.169-.549.299zm.131-1.423q-.161-.233-.503-.306-.343-.073-.59.072-.242.14-.308.452-.066.306.096.539.168.227.51.3.337.072.584-.067.247-.139.312-.445.068-.317-.1-.545zm-.288 1.888q-.2-.292-.603-.378-.403-.086-.705.098-.3.18-.38.558-.082.38.112.67.2.292.597.376.41.088.71-.091.307-.184.39-.569.08-.379-.12-.664zM257.295 957.069q.21.549.271 1.007.06.452-.001.75-.055.295-.207.527-.148.224-.317.342-.17.118-.374.196-.472.181-.897.016-.419-.168-.689-.647l.514-.196q.178.273.421.367.244.094.512-.008.444-.17.524-.662.083-.5-.201-1.261-.21.608-.77.822-.56.214-1.057-.017-.497-.232-.718-.81-.232-.607-.002-1.143.234-.544.823-.77 1.396-.533 2.168 1.487zm-2.002-1.035q-.356.136-.491.482t.014.738q.159.414.468.577.308.156.681.014.374-.143.52-.48.151-.339.006-.718-.154-.403-.494-.574-.342-.177-.704-.039zM261.765 952.118l-.578.792-.318-.232q.31-.563.308-.804-.002-.241-.33-.66l.213-.292 3.579 2.613-.324.444-2.55-1.861zM263.576 951.335q-.507-.23-.855-.49-.348-.262-.505-.49-.163-.232-.217-.476-.054-.245-.024-.43.032-.192.117-.38.6-1.32 2.716-.36.996.453 1.37 1.034.372.574.08 1.217-.294.649-.976.744-.687.093-1.706-.369zm.954-2.134q-1.627-.738-1.994.07t1.278 1.554q1.662.755 2.024-.042.19-.421-.129-.807-.32-.385-1.179-.775z" /></g><path d="M233.609 944.13a16.935 16.935 0 0 0 16.935 16.935 16.935 16.935 0 0 0 16.935-16.935 16.935 16.935 0 0 0-16.935-16.935 16.935 16.935 0 0 0-16.935 16.935z" style="isolation:auto;mix-blend-mode:normal;marker:none" color="#000" overflow="visible" fill="none" enable-background="accumulate"/><g style="line-height:125%" font-weight="400" font-size="5" font-family="FreeSans" letter-spacing="0" word-spacing="0" fill="gray"><path d="M249.472 949.4l3.232-.141.02.465-3.232.14.052 1.2-.41.017-.124-2.857.41-.018.052 1.194zM250.72 944.271q.809-.035 1.364.422.556.456.59 1.255.035.79-.468 1.297-.509.507-1.363.544-.854.038-1.4-.424-.55-.462-.585-1.246-.034-.799.474-1.302.509-.507 1.388-.546zm-1.452 1.83q.025.58.455.916.425.337 1.1.308.674-.03 1.073-.402.394-.378.369-.957-.025-.58-.45-.916-.426-.342-1.085-.314-.69.03-1.088.403-.4.373-.374.962zM248.692 940.91l3.641-.158.023.524-2.87 2.012 2.952-.128.02.44-3.642.158-.022-.505 2.894-2.033-2.977.13-.02-.44zM250.62 939.558l1.248-.054-.093-2.148.41-.018.113 2.612-3.641.159-.11-2.523.41-.018.09 2.059 1.163-.051-.086-1.983.41-.018.086 1.983z" /></g></g><g transform="translate(0 -477.362)"><circle r="18.321" cy="842.672" cx="305.605" style="isolation:auto;mix-blend-mode:normal;marker:none" color="#000" overflow="visible" fill="url(#aO)" fill-rule="evenodd" enable-background="accumulate"/><circle style="isolation:auto;mix-blend-mode:normal;marker:none" cx="305.605" cy="842.672" r="10.931" color="#000" overflow="visible" fill="#fff" fill-rule="evenodd" enable-background="accumulate"/><path d="M288.572 842.672a16.935 16.935 0 0 0 16.935 16.936 16.935 16.935 0 0 0 16.935-16.936 16.935 16.935 0 0 0-16.935-16.935 16.935 16.935 0 0 0-16.935 16.935z" style="isolation:auto;mix-blend-mode:normal;marker:none" color="#000" overflow="visible" fill="none" enable-background="accumulate"/><g style="line-height:125%" font-weight="400" font-size="6.25" font-family="FreeSans" letter-spacing="0" word-spacing="0"><path d="M299.252 840.86v4.045h-.581v-4.044h-1.5v-.513h3.575v.513h-1.494zM305.589 842.698q0 1.013-.6 1.682-.6.668-1.6.668-.988 0-1.594-.656-.606-.662-.606-1.731t.606-1.725q.606-.663 1.587-.663 1 0 1.6.663.607.662.607 1.762zm-2.207-1.912q-.725 0-1.168.519-.444.512-.444 1.356 0 .844.444 1.362.45.513 1.175.513.725 0 1.168-.513.45-.512.45-1.337 0-.863-.443-1.381-.444-.52-1.182-.52zM309.896 840.348v4.557h-.656l-2.356-3.694v3.694h-.55v-4.557h.63l2.382 3.725v-3.725h.55zM311.48 842.83v1.562h2.688v.513h-3.269v-4.557h3.156v.513h-2.575v1.456h2.482v.513h-2.482z" /></g><circle style="isolation:auto;mix-blend-mode:normal;marker:none" cx="305.605" cy="842.672" r="18.321" color="#000" overflow="visible" fill="url(#aP)" fill-rule="evenodd" enable-background="accumulate"/><circle r="10.931" cy="842.672" cx="305.605" style="isolation:auto;mix-blend-mode:normal;marker:none" color="#000" overflow="visible" fill="#fff" fill-rule="evenodd" enable-background="accumulate"/><g style="line-height:125%" font-weight="400" font-size="6.25" font-family="FreeSans" letter-spacing="0" word-spacing="0" fill="gray"><path  d="M292.227 838.46l.29-.938.377.117q-.111.633-.032.86.08.228.527.517l-.107.346-4.233-1.312.163-.526 3.015.935zM291.454 845.074q1.492-.376 1.878.99.171.607-.07 1.084-.242.478-.796.634-.794.224-1.542-.538l-.494-.51q-.321-.332-.567-.444-.247-.112-.53-.078l.635 2.244-.524.147-.802-2.839q.714-.162 1.163-.023.455.138 1.022.699l.47.465q.493.484 1.004.34.343-.098.504-.403.16-.305.058-.666-.226-.8-1.26-.573l-.149-.529zM296.737 852.356q-.356-.313-.666-.236-.3.077-.595.392l-.413-.363q.97-1.054 1.987-.158.474.417.527.896.058.484-.318.91-.446.508-1.071.282.21.367.175.67-.03.3-.31.618-.417.474-.974.483-.553.014-1.064-.436-1.023-.9-.153-2.04l.413.362q-.295.382-.278.705.016.322.354.619.323.285.66.272.34-.017.616-.332.532-.605-.158-1.212l-.177-.148-.052-.045.31-.352q.454.383.728.44.278.062.546-.243.232-.263.204-.553-.018-.291-.29-.53zM303.33 858.39l-1.847-.276.085-.574 2.401-2.461.402.06-.423 2.843.649.097-.073.488-.65-.096-.156 1.05-.544-.08.157-1.051zm.074-.489l.285-1.916-1.658 1.712 1.373.204zM311.665 853.508l.225.495-1.679.763.354 1.2q.224-.398.634-.584.58-.264 1.11-.052.531.204.803.802.29.637.087 1.217-.203.58-.812.857-.233.106-.456.145-.216.037-.378.028-.159-.017-.319-.082-.157-.073-.252-.132-.093-.068-.204-.175-.107-.116-.142-.162-.035-.046-.096-.135l.5-.228q.485.597 1.134.302.41-.186.529-.543.125-.359-.072-.791-.204-.45-.56-.597-.358-.153-.762.03-.233.107-.359.267-.129.155-.21.446l-.46.21-.698-2.334 2.083-.947zM317.133 851.922q-.496-.316-.813-.644-.322-.332-.454-.601-.128-.275-.142-.544-.016-.277.046-.467.066-.195.183-.38.273-.427.71-.541.439-.12.94.104l-.295.464q-.306-.114-.558-.044-.251.069-.406.311-.256.4-.025.852.23.443.91.885-.22-.571.133-1.124.32-.5.856-.61.537-.11 1.059.223.548.35.684.926.134.568-.205 1.1-.8 1.254-2.623.09zm.603-1.409q-.219.342-.136.7.079.353.426.575.358.23.739.168.375-.065.583-.391.205-.322.113-.677-.097-.359-.45-.584-.374-.239-.714-.182-.346.054-.561.391zM317.858 841.066l.463-.003q1.004.745 1.962 1.177.953.426 2.016.601l.004.587q-1.095-.243-1.929-.626-.833-.383-1.969-1.17l.014 2.393-.544.003-.017-2.962zM317.192 834.048q-.113-.836.51-1.243.507-.332 1.055-.19.545.137.904.686.359.55.269 1.109-.1.557-.607.889-.617.403-1.334-.032.007.4-.09.619-.095.219-.351.386-.434.284-.913.157-.483-.133-.804-.625-.322-.492-.246-.982.072-.495.506-.778.262-.171.501-.171.24 0 .6.175zm-1.095.918q-.05.278.142.571.191.293.47.365.27.07.536-.104.262-.17.311-.45.041-.28-.15-.573-.188-.288-.462-.363-.273-.075-.534.096-.272.177-.313.458zm1.534-1.137q-.064.348.162.693.225.345.57.426.339.085.663-.127.324-.212.392-.554.064-.348-.159-.688-.229-.35-.568-.436-.347-.086-.677.13-.324.211-.383.556zM309.978 828.645q.237-.537.517-.905.276-.363.529-.532.246-.171.518-.229.263-.054.466-.019t.403.124q.463.205.648.622.179.414.033.944l-.503-.223q.066-.32-.04-.558-.106-.238-.37-.354-.434-.193-.837.1-.411.297-.746 1.037.577-.284 1.126-.041.549.243.738.757.19.514-.061 1.08-.263.594-.804.813-.55.222-1.126-.034-1.366-.604-.491-2.582zm.691 2.145q.349.154.689.004.34-.15.509-.534.18-.406.074-.739-.108-.328-.473-.49-.366-.162-.707-.025-.346.134-.51.505-.175.394-.054.755.118.367.472.524zM303.317 829.01l.969-.155.062.389q-.617.18-.785.353-.169.173-.23.701l-.358.058-.7-4.376.544-.087.498 3.117zM301.48 828.29q.198.52.261.95.064.43.014.704-.048.279-.182.49-.133.211-.285.322-.158.114-.35.187-1.356.515-2.182-1.658-.388-1.023-.244-1.7.14-.668.8-.919.666-.253 1.218.16.553.418.95 1.464zm-2.18.842q.635 1.67 1.464 1.355.83-.315.188-2.003-.648-1.706-1.466-1.395-.432.164-.477.662-.044.499.29 1.38z"/></g><path style="isolation:auto;mix-blend-mode:normal;marker:none" d="M288.572 842.672a16.935 16.935 0 0 0 16.935 16.936 16.935 16.935 0 0 0 16.935-16.936 16.935 16.935 0 0 0-16.935-16.935 16.935 16.935 0 0 0-16.935 16.935z" color="#000" overflow="visible" fill="none" enable-background="accumulate"/><g style="line-height:125%" font-weight="400" font-size="5" font-family="FreeSans" letter-spacing="-.15" word-spacing="0" fill="gray"><path d="M309.59 835.359l.332-.375 3.598 1.432-.33.375-3.021-1.241 1.643 2.8-.328.37-1.894-3.361zM307.663 840.205q-.607-.537-.69-1.25-.083-.714.447-1.314.523-.592 1.238-.608.718-.012 1.359.554.64.566.713 1.277.076.715-.444 1.303-.53.6-1.245.608-.718.013-1.378-.57zm2.315-.31q.385-.434.309-.975-.073-.538-.578-.985-.506-.447-1.052-.455-.546-.002-.93.433-.384.434-.312.972.07.54.564.978.517.457 1.063.466.546.008.936-.434zM308.469 842.132l-2.424-2.142-1.192 1.349-.308-.272 1.5-1.697 2.732 2.414-.308.348zM305.467 845.529l-.308.348-1.918-1.695q-.412-.364-.4-.868.007-.5.431-.98.43-.487.919-.556.488-.062.904.306l1.919 1.695-.308.348-1.919-1.695q-.296-.261-.611-.206-.315.062-.596.38-.292.33-.3.656-.008.326.269.572l1.918 1.695zM300.694 845.426l.325-.368 2.974 1.248-2.289-2.023.291-.33 2.732 2.414-.427.483-3.095-1.293 1.677 2.897-.427.483-2.731-2.414.291-.33 2.29 2.024-1.61-2.791zM300.23 848.457l-.936-.828-1.424 1.611-.307-.271 1.732-1.96 2.73 2.414-1.671 1.892-.307-.271 1.364-1.544-.873-.771-1.315 1.487-.307-.272 1.315-1.487z" /></g></g><g transform="translate(0 -477.362)"><circle r="5.443" cy="899.735" cx="332.036" style="isolation:auto;mix-blend-mode:normal;marker:none" color="#000" overflow="visible" fill="url(#aQ)" fill-rule="evenodd" enable-background="accumulate"/><circle style="isolation:auto;mix-blend-mode:normal;marker:none" cx="369.703" cy="856.189" r="5.443" color="#000" overflow="visible" fill="url(#aR)" fill-rule="evenodd" enable-background="accumulate"/><path d="M339.003 892.332l24.821-28.305" fill="none" stroke="#838383" stroke-width="2"/><path d="M353.41 878.269c-1.111 4.556-2.912 5.971-4.605 5.558-1.694-.414-2.64-2.499-1.529-7.055 1.112-4.556 4.683-9.657 5.554-9.444.872.213 1.692 6.385.58 10.94z" style="isolation:auto;mix-blend-mode:normal;marker:none" color="#000" overflow="visible" fill="#e5e5e5" fill-rule="evenodd" enable-background="accumulate"/></g><g transform="translate(0 -477.362)"><path d="M209.076 867.006c11.425 6.349 11.79 26.551-3.425 53.93-15.214 27.38-42.627 51.038-51.672 45.218-9.045-5.82-4.122-39.772 11.093-67.151 15.214-27.38 32.58-38.346 44.004-31.997z" style="isolation:auto;mix-blend-mode:normal;marker:none" color="#000" overflow="visible" fill="#d5d5d5" fill-rule="evenodd" enable-background="accumulate"/><path d="M181.66 890.006l-5.818 2.115s-10.841 15.337-13.485 22.74c-2.46 6.888-7.669 28.294-5.553 32.26 2.115 3.967 6.081 7.933 11.899 7.14 5.817-.794 22.476-17.981 25.385-22.74 2.908-4.76 12.692-21.948 12.692-21.948l-.793-6.082z" fill="#e8e8e8" fill-rule="evenodd"/><path transform="translate(0 477.362)" d="M177.842 431.838l-21.229 37.451c.056.175.12.335.192.47 1.963 3.681 5.52 7.354 10.672 7.231l21.89-38.62-11.525-6.532z" style="isolation:auto;mix-blend-mode:normal;marker:none" color="#000" overflow="visible" fill="url(#aS)" fill-rule="evenodd" enable-background="accumulate"/><path d="M181.66 890.006l-5.818 2.115s-10.841 15.337-13.485 22.74c-2.46 6.888-7.669 28.294-5.553 32.26 2.115 3.967 6.081 7.933 11.899 7.14 5.817-.794 22.476-17.981 25.385-22.74 2.908-4.76 12.692-21.948 12.692-21.948l-.793-6.082z" fill="none" stroke="#bdbdbd" stroke-width="2"/><circle r="5.024" cy="874.14" cx="205.193" style="isolation:auto;mix-blend-mode:normal;marker:none" color="#000" overflow="visible" fill="url(#aT)" fill-rule="evenodd" enable-background="accumulate"/><circle style="isolation:auto;mix-blend-mode:normal;marker:none" cx="157.701" cy="959.775" r="5.024" color="#000" overflow="visible" fill="url(#aU)" fill-rule="evenodd" enable-background="accumulate"/><path d="M169.4 904.09l6.15-11.551 5.832-2.432 24.61 13.43.703 6.185-7.565 11.009-5.61-.374-21.315-11.593z" fill="url(#aV)" fill-rule="evenodd"/><ellipse transform="rotate(22.243)" ry="4.581" rx="7.386" cy="766.326" cx="516.315" style="isolation:auto;mix-blend-mode:normal;marker:none" color="#000" overflow="visible" fill="#7b7b7b" fill-rule="evenodd" enable-background="accumulate"/></g><g color="#000" fill-rule="evenodd"><circle r="4.627" cy="348.917" cx="230.446" style="isolation:auto;mix-blend-mode:normal;marker:none" overflow="visible" fill="#999" enable-background="accumulate"/><path transform="rotate(20.934)" style="isolation:auto;mix-blend-mode:normal;marker:none" overflow="visible" fill="url(#aW)" enable-background="accumulate" d="M340.834 240.208h230.578v6.611H340.834z"/><path d="M462.474 436.338c-.933 2.846-18.404-.324-30.817-4.392-12.414-4.068-15.069-7.492-14.136-10.338.932-2.846 5.1-4.035 17.513.033 12.413 4.067 28.372 11.851 27.44 14.697z" style="isolation:auto;mix-blend-mode:normal;marker:none" overflow="visible" fill="#f7f7f7" enable-background="accumulate"/></g><g color="#000" fill-rule="evenodd"><g transform="translate(0 -477.362)"><circle style="isolation:auto;mix-blend-mode:normal;marker:none" cx="1287.879" cy="604.559" r="8.065" overflow="visible" fill="url(#aX)" enable-background="accumulate"/><circle r="4.627" cy="604.559" cx="1287.879" style="isolation:auto;mix-blend-mode:normal;marker:none" overflow="visible" fill="url(#aY)" enable-background="accumulate"/></g><g transform="translate(-34.904 -482.915)"><circle r="8.065" cy="604.559" cx="1287.879" style="isolation:auto;mix-blend-mode:normal;marker:none" overflow="visible" fill="url(#aZ)" enable-background="accumulate"/><circle style="isolation:auto;mix-blend-mode:normal;marker:none" cx="1287.879" cy="604.559" r="4.627" overflow="visible" fill="url(#ba)" enable-background="accumulate"/></g><g transform="translate(-68.222 -488.732)"><circle style="isolation:auto;mix-blend-mode:normal;marker:none" cx="1287.879" cy="604.559" r="8.065" overflow="visible" fill="url(#bb)" enable-background="accumulate"/><circle r="4.627" cy="604.559" cx="1287.879" style="isolation:auto;mix-blend-mode:normal;marker:none" overflow="visible" fill="url(#bc)" enable-background="accumulate"/></g><g transform="translate(33.582 -471.28)"><circle r="8.065" cy="604.559" cx="1287.879" style="isolation:auto;mix-blend-mode:normal;marker:none" overflow="visible" fill="url(#bd)" enable-background="accumulate"/><circle style="isolation:auto;mix-blend-mode:normal;marker:none" cx="1287.879" cy="604.559" r="4.627" overflow="visible" fill="url(#be)" enable-background="accumulate"/></g><g transform="translate(66.9 -465.727)"><circle style="isolation:auto;mix-blend-mode:normal;marker:none" cx="1287.879" cy="604.559" r="8.065" overflow="visible" fill="url(#bf)" enable-background="accumulate"/><circle r="4.627" cy="604.559" cx="1287.879" style="isolation:auto;mix-blend-mode:normal;marker:none" overflow="visible" fill="url(#bg)" enable-background="accumulate"/></g><g transform="translate(100.481 -458.852)"><circle r="8.065" cy="604.559" cx="1287.879" style="isolation:auto;mix-blend-mode:normal;marker:none" overflow="visible" fill="url(#bh)" enable-background="accumulate"/><circle style="isolation:auto;mix-blend-mode:normal;marker:none" cx="1287.879" cy="604.559" r="4.627" overflow="visible" fill="url(#bi)" enable-background="accumulate"/></g></g><path style="isolation:auto;mix-blend-mode:normal;marker:none" d="M1197.207 145.091c.508 3.91-9.27 8.404-16.945 9.402-7.675.998-10.342-1.88-10.85-5.79-.509-3.91 1.335-7.372 9.01-8.37 7.676-.997 18.276.848 18.784 4.758z" color="#000" overflow="visible" fill="#242424" fill-rule="evenodd" enable-background="accumulate"/><g word-spacing="0"><g style="line-height:125%" font-weight="100" font-size="20" font-family="Banff-Normal" letter-spacing="0" fill="#b9b9b9" stroke="#646464" stroke-width=".5"><path d="M1251.114 182.865l-.701.813q-.417.455-.829.974l-.335.443q-.175.204-.343.425-.436.616-.77 1.167-.322.525-.37.826l.095-.083.133-.099q.161-.132.338-.227.177-.096.335-.184.535-.223.786-.09.262.108-.34.64l-.264.198q-.132.098-.257.215-.264.198-.52.413-.258.216-.485.397-.363.325-.641.593-.279.268-.454.471l-.154.15q-.066.05-.14.08-.24.101-.435-.056-.203-.175-.35-.526-.092-.221-.155-.477-.071-.273-.124-.555-.09-.526-.09-1.046.019-.528.13-.834.002-.044.013-.07.03-.034.04-.06.174-.312.745-1.07.583-.785 1.272-1.68.069-.093.146-.169.087-.101.157-.195.754-.944 1.445-1.73.682-.805.95-1.047.058-.068.154-.151.106-.11.23-.226.172-.159.408-.322.227-.182.504-.297.314-.131.656-.144.341-.012.73.194.139.072.24.16.094.069.17.146.075.076.14.18.057.084.103.195.116.277.12.6.005.323-.042.624-.01.134-.037.276l-.018.268q-.003.564-.198 1.707-.176 1.136-.346 2.442l-.067.462q-.016.223-.05.454-.175 1.395-.235 2.655-.048 1.234.206 1.843.077.185.168.298.101.088.25.134l.09.006q.045.003.081-.012.425-.177.856-1.636.432-1.459.825-3.27l.082-.424q.06-.22.102-.433l.345-1.77q.158-.867.307-1.601-.068-.058-.117-.125-.05-.066-.088-.158-.1-.24-.124-.555-.012-.342.023-.725.035-.383.133-.77.099-.388.228-.702.121-.333.289-.554.16-.24.326-.31.158-.088.346.05.18.12.342.508l.069.166q.03.074.05.174.124.295.16.692.028.379 0 .78-.007.242-.052.499l-.052.498q-.043.365-.112.719-.058.328-.069.614-.07.766-.223 1.697-.154.93-.355 1.903l-.257 1.148q-.137.555-.292 1.119-.242.924-.524 1.757-.262.825-.531 1.479-.237.575-.492.898-.255.324-.55.447-.185.077-.4.08-.216.003-.443-.075-.317-.085-.665-.243-.337-.184-.734-.409-.277-.144-.467-.39-.189-.246-.32-.56-.45-1.026-.397-2.717.064-1.717.289-3.566.018-.268.044-.517.037-.275.081-.532.085-.577.15-1.146.066-.57.14-1.12l-.008-.019zM1259.687 187.804q.315.649.73.866.408.198.906-.01.654-.251 1.438-1.229.784-.977 1.648-2.594l.44.64q-.13.465-.276.895-.154.41-.323.785-.625 1.41-1.43 2.287-.793.85-1.605 1.19-.96.4-1.789.075-.819-.352-1.288-1.478-.14-.332-.238-.724-.106-.411-.173-.882-.037-.245-.018-.512.01-.286.065-.57.15-.886.645-1.83.488-.96 1.169-1.614.413-.41.789-.654.367-.262.7-.4.682-.285 1.138-.129.455.157.659.592.092.222.118.492.019.253-.047.562-.05.346-.22.72-.169.374-.438.768-.202.345-.476.676-.255.323-.526.61-.417.455-.846.829-.41.366-.744.657l-.008-.018z"/><path d="M1267.1 182.326q-.097.236-.249.494-.141.233-.275.484l-.268.501q-.122.225-.22.46-.14.34-.205.65-.055.283.037.504.031.074.08.14.042.048.11.106.349.266.714.31.375.016.744-.138.462-.193.909-.575.458-.407.889-.934.382-.485.742-1.025.37-.566.641-1.113.04-.06.062-.112.04-.06.061-.112l.596.596q-.74 2.173-1.75 3.44-1.01 1.266-1.989 1.675-.786.35-1.472.16-.686-.191-1.157-.905l-.328-.578q-.16-.28-.276-.557-.324-.775-.298-1.544.018-.788.513-1.731.289-.554.733-1.152.437-.615 1.05-1.326.048-.042.077-.076.04-.06.087-.101.308-.302.628-.522.312-.239.607-.362.425-.177.76-.1.346.05.5.42.131.313.1.911-.032.599-.33 1.547-.146.429-.306.67-.15.213-.352.298-.232.118-.528-.018-.295-.137-.63-.366l-.007-.019z"/><path d="M1271.719 179.554q-.214.11-.436.203-.203.085-.417.195-.213.111-.42.24-.195.104-.393.252.106-.89.245-1.49.14-.6.338-1.008.289-.554.73-.846.442-.293 1.143-.585.044-.517.161-.913.109-.414.283-.725.166-.329.386-.53.23-.225.452-.318.258-.108.478-.048.239.052.346.31.093.222.05.587-.05.346-.273.85l1.216-.355q-.009.394-.04.732-.014.33-.051.606-.112.719-.395 1.184-.272.438-1.01.746-.166.07-.377.136l-.403.125q-.284 1.657-.306 2.642-.023.984.155 1.409.115.277.28.36.183.075.404-.018.48-.2 1.114-1.071.644-.897 1.23-2.14l.503.788-.136.403-.16.393q-.256.583-.585 1.197-.318.588-.696 1.136-.418.608-.89 1.086-.472.48-.934.672-.073.03-.173.05-.074.031-.156.044-.555.123-.863-.095-.326-.21-.488-.598-.046-.111-.066-.211-.046-.11-.074-.23-.063-.255-.082-.507-.026-.27-.037-.504-.025-.163-.024-.316.002-.152 0-.26l-.714 1.144-.518-.825q.186-.229.328-.461.133-.251.249-.494.494-.944.754-1.724t.28-1.2l-.008-.018z"/><path d="M1280.836 175.228q.339.032.583.255.238.205.384.555.192.462.254 1.13.062.667.034 1.48.044.004.081-.012l.074-.03q.092-.039.158-.088.085-.057.162-.133.209-.174.361-.432.163-.285.289-.554l.108-.262.096-.235.632.733q-.417 1.496-1.022 1.966-.588.461-1.205.697l-.11.046-.093.039q-.168.634-.51 1.166-.349.514-.767.862-.198.148-.404.278-.206.129-.41.214-.572.238-1.133.191-.543-.055-.947-.45-.361-.348-.63-.734-.27-.386-.44-.792-.577-1.384-.125-2.895.453-1.511 1.667-2.602l.286-.25q.143-.125.293-.23.273-.18.534-.332.28-.16.538-.268.472-.219.84-.22.368-.002.476.256.046.111.034.29-.002.152-.08.38l-.008-.019zm-1.397 1.949l-.022.052q-.018.008-.029.034-.782.825-1.29 1.687-.514.843-.178 1.96-.003.044.02.1l.03.074q.131.313.42.432.298.092.675-.044.276-.115.573-.391.308-.302.583-.785-.203-.175-.351-.374-.156-.216-.256-.456-.2-.48-.224-1.056-.023-.575.057-1.215l-.008-.018z"/><path d="M1286.254 174.68q-.593.398-1.082.732-.47.327-.764.557-.007.242-.121.593-.095.343-.23.746l-.108.262-.107.261q-.114.351-.262.673-.155.303-.267.502l-.63-.626q.339-.488.532-.959.175-.463.24-.88-.287-.01-.474-.15-.207-.13-.291-.333-.093-.221-.1-.5-.016-.297.031-.598.062-.373.168-.742.124-.377.29-.706.068-.202.169-.374.094-.191.184-.337.011-.026.03-.034.01-.026.04-.06.066-.05.15-.106.096-.083.18-.14l.056-.024.055-.023q.258-.107.428.039.18.12-.066.829.195-.103.43-.267.236-.163.49-.334l.243-.144q.113-.091.235-.164.217-.155.43-.266.225-.137.447-.23.387-.161.729-.174.341-.012.546.27.09.114.145.244.064.103.11.213.216.517.097.957-.102.433-.34.9-.101.173-.214.371l-.224.397q-.032.079-.078.228-.028.142-.058.328-.01.134-.03.294l-.002.304q-.002.153.023.316.017.144.063.255.077.185.268.278.183.076.478-.048.222-.092.503-.405.274-.33.554-.75.149-.215.272-.44.133-.25.249-.493.093-.191.169-.374.086-.21.124-.377l.44.64q-.594 2.003-1.309 3.146-.714 1.144-1.416 1.437-.49.226-.961.033-.453-.202-.86-.812l-.015-.037-.023-.056q-.026-.01-.033-.029l-.016-.037q-.1-.24-.142-.547-.023-.316-.01-.646.028-.402.11-.827.102-.432.219-.827.07-.247.149-.474.089-.254.164-.437l-.007-.019z"/></g><g style="line-height:125%" font-weight="700" font-size="6.25" font-family="Droid Sans" letter-spacing="0"><path d="M1257.211 200.797l-2.252-2.853-.025.01q.125.253.238.49.053.1.099.21.055.106.1.213.053.103.094.202l.074.177.8 1.915-.78.326-1.719-4.117 1.189-.496 2.204 2.777.016-.007-.368-3.544 1.189-.496 1.718 4.118-.814.34-.813-1.95-.07-.166q-.038-.093-.072-.2-.044-.105-.08-.216-.035-.11-.077-.212-.088-.241-.186-.5l-.022.008.37 3.632-.802.335zM1263.28 198.264l-2.833 1.183-.236-.566.562-3.558-1.69.705-.3-.721 2.725-1.138.236.563-.558 3.56 1.794-.749.3.721zM1263.269 193.372q.256-.107.51-.14.254-.034.478.018.223.053.402.196.18.144.284.394.077.186.084.362.006.172-.04.338-.048.162-.144.314-.095.152-.22.297.2.019.4.061.202.041.38.126.176.082.319.218.142.135.228.34.107.257.092.508-.014.25-.136.473-.122.223-.346.41-.22.184-.527.312-.332.139-.623.17-.291.033-.527-.034-.236-.067-.415-.233-.176-.168-.283-.425-.089-.21-.097-.406-.009-.194.042-.374.05-.18.15-.344.1-.164.231-.311-.174-.03-.338-.081-.164-.054-.306-.14-.14-.09-.257-.22-.115-.13-.191-.314-.102-.245-.077-.47.026-.23.15-.427.121-.2.323-.356.203-.157.453-.262zm.7 3.318q.047.113.124.193.076.078.174.116.101.037.225.032.122-.008.263-.067.296-.123.385-.322.088-.202-.008-.43-.049-.119-.139-.19-.088-.076-.2-.122-.109-.05-.236-.077-.127-.026-.251-.047l-.079-.013q-.098.113-.168.229-.072.113-.11.23-.034.114-.032.232.003.118.052.236zm-.44-2.68q-.093.04-.163.101-.067.061-.104.14-.034.077-.035.17-.001.093.04.192.05.118.12.19.072.07.159.113.089.039.19.06.103.016.214.03.07-.082.125-.169.056-.086.088-.178.032-.097.033-.2 0-.102-.047-.215-.041-.098-.108-.163-.067-.064-.148-.093-.082-.03-.175-.023-.094.006-.19.046zM1268.581 193.28q.124.296.213.606.091.306.119.609.03.301-.017.595-.044.29-.193.55-.146.26-.412.487-.265.223-.676.394-.059.025-.13.051-.072.027-.147.052-.072.027-.143.046-.07.023-.125.033l-.292-.699q.116-.015.241-.047.127-.037.251-.088.38-.16.587-.354.205-.198.278-.427.072-.232.032-.493-.037-.263-.142-.553l-.037.016q-.014.124-.056.245-.042.12-.122.23-.08.109-.2.202-.12.093-.286.162-.268.112-.518.114-.25.002-.47-.102-.215-.105-.395-.314-.18-.21-.31-.522-.14-.336-.158-.64-.014-.304.084-.56.097-.258.304-.46.21-.204.519-.333.304-.127.615-.128.31-.003.596.138.287.142.542.436.255.293.448.755zm-1.892-.51q-.116.05-.194.131-.078.083-.11.202-.032.116-.014.27.02.15.097.337.125.298.325.42.2.121.456.015.13-.055.215-.15.086-.095.128-.209.041-.113.039-.23 0-.12-.044-.224-.06-.144-.155-.27-.094-.129-.214-.21-.118-.087-.255-.113-.134-.027-.275.032zM1272.073 194.595l-.87.363-.995-2.383-.073-.174q-.043-.105-.08-.218-.038-.117-.085-.23-.037-.116-.076-.209-.007.023-.027.07l-.044.108-.053.119q-.028.06-.056.112l-.315.578-.641-.348.886-1.61.715-.298 1.719 4.118zM1273.535 190.896q.265-.11.527-.124.262-.014.497.073.235.088.43.284.193.194.32.498.14.335.147.646.006.308-.119.579-.126.268-.387.492-.257.223-.646.385-.154.065-.312.114-.158.05-.311.08-.149.033-.293.043-.141.01-.266-.004l-.314-.752q.122.015.273.012.15-.007.302-.027.155-.025.306-.062.149-.039.275-.092.378-.157.51-.394.132-.24-.01-.581-.128-.304-.388-.38-.258-.081-.661.087-.073.03-.154.074-.079.042-.154.09-.074.048-.14.095-.066.044-.113.084l-.424-.042-.72-2.162 2.173-.908.308.738-1.42.593.27.836q.083-.058.193-.126.113-.07.301-.15zM1278.112 189.303q.123.296.213.606.09.306.118.608.03.302-.016.596-.045.29-.194.55-.146.26-.412.486-.264.223-.675.395l-.13.05q-.072.027-.148.053-.071.026-.143.046-.07.022-.125.032l-.292-.698q.116-.015.242-.048.127-.036.25-.088.38-.159.587-.354.205-.198.278-.427.072-.232.033-.493-.037-.262-.142-.553l-.037.016q-.014.125-.057.245-.042.12-.122.23-.08.11-.2.202-.12.093-.286.163-.267.111-.518.113-.25.002-.469-.102-.216-.105-.396-.314-.18-.21-.31-.522-.14-.335-.157-.639-.015-.304.083-.56.097-.26.304-.461.21-.203.52-.333.303-.126.614-.127.31-.004.597.138.287.141.542.435.255.294.447.756zm-1.893-.51q-.115.049-.193.13-.078.083-.111.202-.031.116-.013.27.02.151.097.337.124.298.324.42t.456.015q.13-.054.215-.15.086-.095.128-.208.042-.113.04-.231 0-.12-.044-.224-.06-.143-.156-.269-.094-.13-.214-.211-.118-.087-.255-.112-.133-.027-.274.032zM1282.296 190.328l-2.763 1.153-.252-.606.532-1.449q.101-.273.181-.502.08-.228.121-.43.041-.203.032-.391-.009-.188-.088-.377-.087-.208-.261-.27-.173-.064-.384.024-.222.093-.382.288-.16.196-.3.493l-.708-.363q.08-.169.174-.33.093-.165.225-.316t.312-.282q.179-.135.427-.238.295-.123.563-.14.27-.016.5.066.229.08.406.258.18.176.291.444.101.242.11.5.007.255-.05.53-.06.272-.165.565-.105.288-.234.596l-.288.706.017.04 1.678-.701.306.732zM1283.062 190.008l.054-3.99-1.892.79-.306-.733 2.839-1.185.228.547-.013 4.191-.91.38zM1288.356 186.797l-.496.207.356.853-.848.354-.356-.853-1.7.71-.254-.606.64-3.389.8-.333 1.08 2.588.495-.207.283.676zm-1.626-.115l-.291-.699-.044-.104q-.03-.07-.057-.162-.036-.087-.066-.184-.03-.096-.064-.18-.026-.09-.052-.151-.018-.069-.03-.097l-.025.01q-.001.14-.01.3-.007.157-.034.324l-.252 1.329.935-.39z"/></g><g style="line-height:125%" font-weight="700" font-size="6.25" font-family="Droid Sans" letter-spacing=".5"><path d="M1314.843 166.567l1.634-.682.89 2.135q-.14.121-.288.236-.148.111-.315.218-.166.102-.356.201-.187.098-.407.19-.462.192-.876.206-.412.01-.77-.155-.354-.169-.645-.51-.293-.345-.51-.863-.201-.484-.224-.934-.023-.45.137-.838.16-.391.5-.704.34-.318.858-.534.33-.138.674-.199.345-.061.654-.058l.001.82q-.231-.016-.5.02-.267.035-.532.146-.287.12-.475.318-.187.193-.274.445-.087.25-.066.546.02.296.153.614.127.304.292.533.166.225.372.354.206.129.451.146.248.015.533-.103.186-.078.305-.148.123-.07.226-.14l-.359-.86-.78.326-.303-.726zM1320.288 162.174l1.112 2.665q.134.32.15.638.02.316-.095.602-.113.285-.363.525-.25.24-.653.408-.38.159-.718.174-.336.011-.616-.106-.278-.12-.496-.356-.219-.239-.362-.582l-1.107-2.653.87-.364 1.08 2.589q.095.228.209.372.112.142.243.21.132.063.284.056.153-.007.33-.081.369-.154.443-.437.077-.283-.103-.714l-1.078-2.582.87-.364zM1325.023 165.033l-1.873.782-.207-.496.405-.44-1.112-2.664-.598-.022-.207-.496 1.873-.781.207.495-.405.44 1.112 2.665.598.022.207.495zM1327.686 163.921l-.87.364-1.415-3.391-1.034.431-.303-.726 2.935-1.225.303.726-1.03.43 1.414 3.391zM1331.812 162.2l-.691-.863-1.42.593.125 1.098-.881.368-.388-4.692 1.067-.446 3.07 3.574-.882.368zm-1.2-1.51l-.64-.791q-.038-.044-.12-.145-.083-.101-.179-.223-.096-.126-.188-.253-.093-.126-.148-.219.015.067.03.16.019.091.033.198.017.102.03.208.016.106.028.2.013.094.02.168l.015.106.114 1.01 1.005-.42zM1333.593 158.768l.237-.1q.363-.15.46-.36.097-.212-.02-.494-.122-.293-.343-.346-.22-.054-.576.094l-.222.093.464 1.113zm.296.71l.66 1.58-.873.364-1.719-4.118 1.127-.47q.791-.33 1.297-.18.504.146.764.768.088.212.103.407.016.195-.024.37-.037.171-.119.325-.08.149-.187.273l.934.661q.178.125.343.244.169.118.3.212.132.094.215.149l.08.059-.968.404-1.552-1.207-.38.158z"/></g><g style="line-height:125%" font-weight="700" font-size="5" font-family="Droid Sans" letter-spacing="-.15"><path d="M1306.265 180.293l-1.802-2.283-.02.009q.1.201.189.391.035.084.08.168.037.088.082.17l.069.164.06.142.639 1.532-.625.26-1.374-3.294.95-.396 1.764 2.221.014-.005-.295-2.835.951-.397 1.375 3.294-.651.272-.65-1.56-.056-.132-.066-.158-.07-.17q-.037-.085-.061-.17-.07-.193-.149-.4l-.018.007.297 2.905-.642.268zM1310.898 178.359l-.552-.69-1.136.474.1.879-.706.294-.31-3.754.854-.357 2.455 2.86-.705.294zm-.96-1.208l-.512-.633-.096-.116-.143-.178q-.076-.1-.15-.202-.074-.102-.119-.176.012.054.024.128.015.073.026.158.014.082.025.167l.022.16.016.134.011.085.092.809.804-.336zM1313.73 175.206q.173.417.19.78.018.36-.11.663-.126.298-.395.535-.267.236-.666.402l-.867.362-1.375-3.294.964-.402q.363-.152.697-.17.336-.018.629.1.292.117.528.373.239.255.404.651zm-.7.313q-.115-.274-.254-.45-.139-.177-.299-.264-.158-.087-.337-.086-.178 0-.374.081l-.322.135.895 2.145.257-.107q.442-.185.55-.547.11-.364-.117-.907zM1316.876 175.864l-1.897.792-1.375-3.294 1.897-.792.239.572-1.199.5.302.724 1.115-.466.24.573-1.116.465.354.85 1.199-.5.24.576zM1319.72 174.677l-1.499.625-.165-.396.323-.352-.89-2.132-.477-.017-.166-.397 1.499-.625.165.397-.324.352.89 2.131.478.018.165.396zM1322.924 173.34l-.885.369-2.336-1.951-.02.008q.086.168.166.336.07.142.143.303.076.156.13.284l.646 1.55-.624.26-1.374-3.293.88-.368 2.323 1.927.014-.005-.156-.332q-.03-.072-.07-.142l-.064-.151-.061-.147-.053-.126-.65-1.56.626-.26 1.375 3.293zM1327.46 171.446l-.885.37-2.336-1.951-.02.008q.086.168.166.336.07.142.142.303.076.156.13.284l.647 1.55-.624.26-1.375-3.293.881-.368 2.323 1.927.014-.005-.157-.332q-.03-.072-.07-.142l-.063-.151-.061-.147-.053-.126-.65-1.56.626-.26 1.374 3.293zM1330.05 170.365l-1.897.792-1.375-3.294 1.897-.792.24.573-1.2.5.302.723 1.116-.465.238.572-1.115.465.355.85 1.198-.5.241.576zM1333.67 168.855l-.793.33-1.084-1.454q-.023-.03-.061-.086l-.085-.126-.098-.147-.097-.15-.085-.134-.06-.102q.018.04.03.115l.038.153.038.172.037.173q.018.082.031.15l.02.109.275 1.787-.796.332-2.167-2.963.687-.287 1.124 1.642q.024.032.063.098l.093.141.107.167.111.17.1.158q.046.07.073.117-.011-.053-.034-.134-.018-.082-.041-.173l-.046-.193q-.02-.1-.04-.184l-.034-.152-.017-.099-.313-2.036.613-.256 1.227 1.655q.02.023.056.082.04.055.086.13.049.073.103.159l.105.168q.051.079.094.15.046.072.073.119-.011-.054-.035-.134l-.04-.181-.047-.198-.04-.195q-.02-.092-.038-.164l-.024-.114-.376-1.954.687-.287.582 3.625zM1337.766 167.145l-2.267.946-.189-.453.45-2.846-1.352.564-.24-.577 2.18-.91.189.45-.447 2.848 1.435-.599.241.577zM1340.05 166.192l-1.897.792-1.375-3.294 1.897-.792.239.572-1.199.5.302.724 1.115-.466.239.573-1.115.465.354.85 1.199-.5.24.576zM1342.48 165.178l-.553-.69-1.135.474.1.879-.706.294-.31-3.754.854-.356 2.455 2.858-.705.295zm-.96-1.208l-.512-.633q-.031-.035-.096-.116l-.143-.178q-.077-.1-.15-.202-.074-.102-.12-.176.012.054.025.128.014.073.026.158.013.082.024.168l.023.16q.01.075.015.133l.012.085.091.809.805-.336zM1343.463 164.767l-1.374-3.294.698-.291 1.134 2.717 1.199-.5.24.576-1.897.792zM1347.673 163.01l-.552-.69-1.136.474.1.88-.705.293-.31-3.754.853-.356 2.455 2.859-.705.294zm-.959-1.208l-.513-.633q-.03-.034-.096-.115l-.143-.179q-.076-.1-.15-.202-.074-.101-.119-.175.012.053.024.127.015.074.026.159l.025.167.022.16q.01.075.016.134l.011.085.092.808.804-.336zM1351.44 161.438l-.886.37-2.336-1.951-.02.008q.086.168.166.336.07.142.143.303.076.156.13.284l.646 1.55-.624.26-1.375-3.293.881-.368 2.323 1.927.014-.005-.157-.332q-.03-.072-.07-.142l-.063-.151-.061-.147-.053-.126-.65-1.56.626-.26 1.375 3.293zM1353.98 158.407q.174.417.19.78.019.36-.11.663-.126.298-.395.535-.266.236-.665.402l-.868.362-1.374-3.294.964-.402q.363-.152.697-.17.336-.018.629.1.291.117.528.373.238.255.404.651zm-.7.313q-.115-.274-.254-.45-.138-.177-.298-.264-.158-.087-.338-.086-.177 0-.373.081l-.322.135.895 2.145.257-.107q.442-.185.55-.547.11-.364-.117-.907z"/></g></g><g transform="translate(0 -477.362)" clip-path="url(#bj)" fill="none"><path d="M789 641.056l14.208 92.171M821.573 634.126l14.207 92.171M855.877 629.621l14.207 92.172M891.22 623.384l14.208 92.171M928.644 618.533l14.207 92.171M968.839 611.95l14.207 92.17M1010.42 608.484l14.207 92.172M1054.773 602.247l14.207 92.171M1100.859 593.93l14.207 92.172" stroke="#85806d" stroke-width="2"/><path d="M1150.41 584.575l14.206 92.171" stroke="#fff" stroke-width="3.5"/><path d="M759.201 644.175l14.207 92.171M730.094 647.986l14.207 92.172M702.72 650.065l14.207 92.172M676.039 655.956l14.207 92.171M651.783 658.728l14.207 92.171M629.26 662.886l14.207 92.171M607.43 667.39l14.207 92.172M586.64 670.51l14.206 92.17M566.196 672.935l14.206 92.171M547.83 675.36l14.207 92.172M530.852 677.093l14.207 92.171M514.566 681.251l14.207 92.171" stroke="#85806d" stroke-width="2"/></g><g transform="translate(0 -477.362)" color="#000" fill="#514d42" fill-rule="evenodd"><circle r="3.985" cy="681.598" cx="811.524" style="isolation:auto;mix-blend-mode:normal;marker:none" overflow="visible" enable-background="accumulate"/><circle style="isolation:auto;mix-blend-mode:normal;marker:none" cx="878.747" cy="670.509" r="3.985" overflow="visible" enable-background="accumulate"/><circle r="3.985" cy="659.421" cx="953.939" style="isolation:auto;mix-blend-mode:normal;marker:none" overflow="visible" enable-background="accumulate"/><circle style="isolation:auto;mix-blend-mode:normal;marker:none" cx="1036.755" cy="646.6" r="3.985" overflow="visible" enable-background="accumulate"/><circle r="3.985" cy="671.202" cx="718.313" style="isolation:auto;mix-blend-mode:normal;marker:none" overflow="visible" enable-background="accumulate"/><circle style="isolation:auto;mix-blend-mode:normal;marker:none" cx="725.936" cy="719.021" r="3.985" overflow="visible" enable-background="accumulate"/><circle r="3.985" cy="706.546" cx="647.279" style="isolation:auto;mix-blend-mode:normal;marker:none" overflow="visible" enable-background="accumulate"/><circle style="isolation:auto;mix-blend-mode:normal;marker:none" cx="603.272" cy="713.823" r="3.985" overflow="visible" enable-background="accumulate"/><circle r="3.985" cy="720.06" cx="564.463" style="isolation:auto;mix-blend-mode:normal;marker:none" overflow="visible" enable-background="accumulate"/><circle style="isolation:auto;mix-blend-mode:normal;marker:none" cx="529.466" cy="725.604" r="3.985" overflow="visible" enable-background="accumulate"/></g><path d="M217.08 258.823l1002.94-139.671" fill="none" stroke="#b3b3b3" stroke-width="2"/><path d="M220.819 272.846l935.085-134.881 97.398-13.017" opacity=".75" fill="none" stroke="#b3b3b3" stroke-width="2"/><path d="M224.932 287.243l932.477-140.991 131.045-15.882" opacity=".6" fill="none" stroke="#b3b3b3" stroke-width="2"/><path d="M225.12 302.95l933.751-147.576 162.865-18.647" opacity=".45" fill="none" stroke="#b3b3b3" stroke-width="2"/><path d="M230.168 317.347l929.33-153.318 195.893-21.692" opacity=".35" fill="none" stroke="#b3b3b3" stroke-width="2"/><path d="M232.038 331.557l928.482-159.385 228.527-23.104" opacity=".25" fill="none" stroke="#b3b3b3" stroke-width="2"/><path fill="none" d="M12.421 23.683h681.151v521.291H12.421z"/></svg>