<svg xmlns="http://www.w3.org/2000/svg" viewBox="0 0 744.09 852.36"><path d="M685.236 59.654l-2.038 2.34c-164.907 92.865-257.377 176.561-371.54 307.6-13.936 15.996-26.769 31.507-38.522 46.485-77.812-28.444-165.172 66.337-210.027 149.075 37.177-15.475 73.647-35.466 119.291 2.667-5.048 14.574-8.023 27.691-9.035 39.259l15.007 13.074c28.046-35.751 56.115-69.01 79.713-96.096 23.33-25.941 49.857-59.554 58.178-51.323 9.095 8.996-20.409 38.944-42.838 64.688-23.687 28.54-52.462 60.55-83.753 92.576l14.247 12.412c11.316-2.587 23.912-7.334 37.65-14.328 44.369 40.078 29.518 79.01 19.258 118.039 75.945-55.863 157.997-155.606 118.668-228.822 13.195-13.667 26.79-28.482 40.691-44.437 114.163-131.039 184.432-234.077 253.83-410.152l2.038-2.339c-.48.27-.977.545-1.457.814.201-.512.436-1.015.637-1.528zM542.257 224.872c12.437 10.835 13.954 29.615 3.425 42.313l-.476.547c-11.025 12.654-30.205 13.975-42.859 2.95s-13.974-30.204-2.949-42.859 30.204-13.975 42.859-2.95z" fill-opacity=".973" fill="#302975"/><path d="M319.071 481.25c6.635 6.663-17.504 31.465-35.963 52.653-32.709 39.206-76.777 86.619-122.424 129.148 36.222-50.889 78.834-101.862 111.158-138.964 19.163-21.381 41.159-48.933 47.23-42.837z" fill-opacity=".973" fill="#302975"/><g fill-opacity=".973"><path d="M45.252 796.247l.253-.29c-.71-27.699 17.496-68.209 49.796-105.283 16.987-19.498 47.596-49.178 65.297-60.204-22.035 21.966-21.709 23.502-26.4 28.835-21.74 23.441-45.965 64.531-42.265 84.135 19.035.491 55.488-29.231 76.966-53.903 6.683-8.095 6.405-7.516 25.019-30.038-8.498 19.046-33.705 53.432-50.69 72.929-32.298 37.071-69.934 60.655-97.468 63.75l-.254.29c-.003-.088-.016-.182-.018-.271-.08.008-.157.042-.236.05z" fill="#f60"/><path d="M105.214 727.776l.138-.16c-.388-15.14 9.564-37.283 27.219-57.548 9.285-10.658 26.016-26.88 35.693-32.909-12.045 12.007-11.867 12.847-14.43 15.762-11.884 12.813-25.126 35.273-23.103 45.99 10.404.267 30.33-15.98 42.07-29.465 3.653-4.425 3.501-4.109 13.676-16.42-4.645 10.411-18.424 29.208-27.709 39.865-17.654 20.264-38.227 33.156-53.277 34.846l-.139.16c-.001-.05-.008-.101-.01-.15-.043.005-.086.024-.129.028z" fill="#ff0"/></g><path d="M266.432 420.587c-85.58-17.413-162.484 90.565-169.138 103.03 117.264-138.032 177.365-88.646 169.138-103.03z" fill="#e6e6e6"/><path d="M668.545 79.602C491.654 185.13 385.056 294.323 284.362 415.432c1.557 8.26 9.851 14.36-22.5 52.46l-72.055 91.119C333.502 393.716 438.782 247.499 668.55 79.595z" fill="#fff"/><path d="M545.44 249.874c-12.025 13.729-32.883 15.142-46.651 3.147a32.9 32.9 0 0 1-1-.91 24.273 24.273 0 0 0 7.576 12.297c10.151 8.844 25.574 7.782 34.417-2.369l.372-.472a24.171 24.171 0 0 0 5.286-11.692z" fill-opacity=".973" fill="#b3b3b3"/><path d="M332.723 465.242C319.99 454 313.658 458.48 294.974 478.92l-46.845 58.629c55.712-65.531 68.952-79.632 84.594-72.306z" fill="#fff"/></svg>